<svg class="animated" id="freepik_stories-bitcoin" xmlns="http://www.w3.org/2000/svg" viewBox="0 0 500 500" version="1.1" xmlns:xlink="http://www.w3.org/1999/xlink" xmlns:svgjs="http://svgjs.com/svgjs"><style>svg#freepik_stories-bitcoin:not(.animated) .animable {opacity: 0;}svg#freepik_stories-bitcoin.animated #freepik--Bitcoin--inject-36 {animation: 1s 1 forwards cubic-bezier(.36,-0.01,.5,1.38) fadeIn,3s Infinite  linear floating;animation-delay: 0s,1s;}svg#freepik_stories-bitcoin.animated #freepik--Plant--inject-36 {animation: 1.5s Infinite  linear wind;animation-delay: 0s;}            @keyframes fadeIn {                0% {                    opacity: 0;                }                100% {                    opacity: 1;                }            }                    @keyframes floating {                0% {                    opacity: 1;                    transform: translateY(0px);                }                50% {                    transform: translateY(-10px);                }                100% {                    opacity: 1;                    transform: translateY(0px);                }            }                    @keyframes wind {                0% {                    transform: rotate( 0deg );                }                25% {                    transform: rotate( 1deg );                }                75% {                    transform: rotate( -1deg );                }            }        .animator-hidden { display: none; }</style><g id="freepik--Floor--inject-36" class="animable animator-hidden" style="transform-origin: 254.045px 465.395px;"><path d="M446.09,465.39c0,.15-86,.27-192.06.27S62,465.54,62,465.39s86-.26,192.08-.26S446.09,465.25,446.09,465.39Z" style="fill: rgb(38, 50, 56); transform-origin: 254.045px 465.395px;" id="el65vmtp3n5s" class="animable"></path></g><g id="freepik--Character--inject-36" class="animable" style="transform-origin: 237.635px 174.206px;"><path d="M251.76,92.89c0,.39-8.06,23.3-8.06,23.3l-11.95-6.26,6-19.08Z" style="fill: rgb(69, 90, 100); transform-origin: 241.755px 103.52px;" id="elhtqq9d4vgo7" class="animable"></path><polygon points="243.7 116.19 245.04 116.36 253.05 93.05 251.6 92.86 243.7 116.19" style="fill: rgb(38, 50, 56); transform-origin: 248.375px 104.61px;" id="ela85fykgyp7t" class="animable"></polygon><path d="M243.61,94.69a.56.56,0,0,1-.75.29.57.57,0,0,1,.45-1A.58.58,0,0,1,243.61,94.69Z" style="fill: rgb(38, 50, 56); transform-origin: 243.149px 94.5027px;" id="elobql0g5i48r" class="animable"></path><path d="M230.07,105a.07.07,0,0,1,0-.11c.36-.38,2.11-2.19,3.68-3.79a5.4,5.4,0,0,1,4.06-1.59l2.13.1a3.76,3.76,0,0,1,3.56,4.25l-.41,2.85a1.05,1.05,0,0,1-1,.89l-5.5-.06-.84,1Z" style="fill: rgb(183, 136, 118); transform-origin: 236.788px 104.023px;" id="elt4v7wh773vc" class="animable"></path><path d="M272,128.18a15.29,15.29,0,0,0,6.18.68,18.16,18.16,0,0,1,6.2.51,5.78,5.78,0,0,1,4.1,4.31c.25,1.75-.62,3.54-.3,5.28s1.93,3.47,1.46,5.26c-.39,1.5-2.07,2.26-3.6,2.55a13.67,13.67,0,0,1-15.32-18.28" style="fill: #E6C0E9; transform-origin: 279.778px 137.594px;" id="elju2z0rtr5n8" class="animable"></path><g id="elqvb4jh19x48"><g style="opacity: 0.3; transform-origin: 278.996px 132.875px;" class="animable" id="eljrr42lmq17e"><path d="M275.28,133.27l4.06,2.32a6.12,6.12,0,0,0,1.89.83,2.22,2.22,0,0,0,1.95-.44,3.19,3.19,0,0,0,.63-2.54,5.19,5.19,0,0,0-.72-2.75c-.9-1.25-2.65-1.5-4.19-1.41a15,15,0,0,0-4.77,1.1" id="elv7f4q0srprr" class="animable" style="transform-origin: 278.996px 132.875px;"></path></g></g><path d="M319.69,127.13c-3-4.09-8.39-5.64-13.38-6.94l-11.22-2.91a19.43,19.43,0,0,0-7-.94,8.31,8.31,0,0,0-1.68.38,26.83,26.83,0,0,0,1.09-2.83,7.55,7.55,0,0,0,.17-5.27,7.87,7.87,0,0,0-2.55-2.87c-2.54-2-5.23-5.07-8.44-5.47a8.57,8.57,0,0,0-8,3.76l.26,1.85c3.24-3.84,4.09-3.66,6.59-5,.92,3,3.72,9.89,6.28,11.8a2,2,0,0,1,.69.69,1.94,1.94,0,0,1-.33,1.7,21.76,21.76,0,0,0-2.06,4.66c-.4,1.49-1.67,5.37-1.43,7.25a4.2,4.2,0,0,0,1.4,4.22,10.69,10.69,0,0,0,4.68,2.08,18.78,18.78,0,0,1,4.91,1.57,7.84,7.84,0,0,1,4,7.13,3.16,3.16,0,0,0,2.09-2.89l2.6,2a11.62,11.62,0,0,0,.21-5c1.18.87,2.33,1.78,3.54,2.59,2.79,1.89,6.24,3.35,9.51,2.46l-.09-2.61,5.36,3.72a7.37,7.37,0,0,0,1.21-6.93l2.72,2.94A11.16,11.16,0,0,0,319.69,127.13Z" style="fill: rgb(38, 50, 56); transform-origin: 295.245px 121.248px;" id="elgxcwc4wzk5c" class="animable"></path><path d="M276.5,98.64a7.41,7.41,0,0,1,10.59.49c1.11,1.36,1.7,3.09,2.93,4.32,4,4,11.83.46,15.93,4.35,2.88,2.73,2.43,7.94,5.62,10.32,2.87,2.15,7.47,1,10,3.51a8.55,8.55,0,0,1,1.86,3.92,10.76,10.76,0,0,0,1.68,4,3.35,3.35,0,0,0,3.89,1.17c.37,1.71-1.23,3.33-2.95,3.67a11.28,11.28,0,0,1-5.14-.71c-1.68-.48-3.51-.89-5.14-.27-2.21.83-3.45,3.31-5.64,4.18a6.15,6.15,0,0,1-5.88-1.2,20.68,20.68,0,0,1-4-4.79,14.52,14.52,0,0,0-4.32-4.5c-2.25-1.31-5-1.42-7.57-1.47s-5.32-.11-7.62-1.33-4-4-3.08-6.44" style="fill: rgb(38, 50, 56); transform-origin: 302.777px 117.264px;" id="eldioo5marfc7" class="animable"></path><path d="M277.12,125.65a1,1,0,0,0,1.09.85,2.73,2.73,0,0,0,1.4-.54,26.56,26.56,0,0,0,8.27-8.41c1.76-2.87,3-6.33,2.14-9.58a10.09,10.09,0,0,0-3-4.73,20.33,20.33,0,0,0-4.74-3.11,11.78,11.78,0,0,0-5.48-1.56c-3.22.08-9.1,2-9.74,9.86" style="fill: rgb(38, 50, 56); transform-origin: 278.68px 112.538px;" id="elf5m6u01tiwt" class="animable"></path><path d="M286,108.89s-5,4.11-5.15,3.76l-2.2,4.08a4.72,4.72,0,0,0,1.76,6.31h0l-6.81,13.44c-1.57,2.86-9.63,2.52-12.68.81h0c-3.09-1.73-.66-4.7,1-7.33a46.45,46.45,0,0,0,3.26-6.32s-3.59-2.76-1.67-8.34a60.87,60.87,0,0,1,5.36-10.22c1.83-3,5-6.16,7.93-4.19Z" style="fill: rgb(183, 136, 118); transform-origin: 272.717px 119.441px;" id="elzwofc3jl8qh" class="animable"></path><path d="M268.6,108.51a.76.76,0,0,0,.29,1,.71.71,0,0,0,1-.23.75.75,0,0,0-.28-1A.72.72,0,0,0,268.6,108.51Z" style="fill: rgb(38, 50, 56); transform-origin: 269.248px 108.895px;" id="eleut150wlqu5" class="animable"></path><path d="M268.6,107.74c0,.13.74,0,1.45.41s1,1,1.16,1,.06-.22-.08-.51a2.11,2.11,0,0,0-.88-.88,1.92,1.92,0,0,0-1.2-.21C268.74,107.57,268.58,107.68,268.6,107.74Z" style="fill: rgb(38, 50, 56); transform-origin: 269.945px 108.339px;" id="eloij3gphchas" class="animable"></path><path d="M275.33,112.5a.74.74,0,0,0,.28,1,.71.71,0,0,0,1-.23.76.76,0,0,0-.28-1A.72.72,0,0,0,275.33,112.5Z" style="fill: rgb(38, 50, 56); transform-origin: 275.967px 112.887px;" id="el5demomgfq1v" class="animable"></path><path d="M275.52,111.59c0,.13.73,0,1.44.41s1,1,1.16,1,.06-.21-.08-.5a2,2,0,0,0-2.08-1.1C275.66,111.42,275.5,111.53,275.52,111.59Z" style="fill: rgb(38, 50, 56); transform-origin: 276.86px 112.19px;" id="eleplkb054cn5" class="animable"></path><path d="M270.14,115.49a5.49,5.49,0,0,0-1.05-.82c-.17-.12-.32-.25-.29-.39s.21-.3.41-.47l1.27-1.09a28.41,28.41,0,0,0,3.13-3,27.82,27.82,0,0,0-3.36,2.72L269,113.57a1.17,1.17,0,0,0-.47.66.49.49,0,0,0,.15.43,1.61,1.61,0,0,0,.29.21A5,5,0,0,0,270.14,115.49Z" style="fill: rgb(38, 50, 56); transform-origin: 271.067px 112.605px;" id="elv7f8us69lhm" class="animable"></path><path d="M265.17,123.64a14.88,14.88,0,0,0,7.88,1.82s-3.56,2.65-8.45-.57Z" style="fill: rgb(170, 101, 80); transform-origin: 268.825px 125.063px;" id="elhqzds0k9ewf" class="animable"></path><path d="M269.53,117.36a1.44,1.44,0,0,1,1.4.14,1.28,1.28,0,0,1,.57.86.83.83,0,0,1-.39.88,1,1,0,0,1-1.06-.26,3.26,3.26,0,0,1-.62-1,1.17,1.17,0,0,1-.09-.32.28.28,0,0,1,.14-.26" style="fill: rgb(170, 101, 80); transform-origin: 270.428px 118.268px;" id="elgspranjolih" class="animable"></path><path d="M272,117.09c-.12-.07-.53.7-1.48.9a4.58,4.58,0,0,1-1.79-.22s.1.25.45.44a2.18,2.18,0,0,0,1.47.23,1.87,1.87,0,0,0,1.18-.78C272,117.35,272,117.12,272,117.09Z" style="fill: rgb(38, 50, 56); transform-origin: 270.365px 117.783px;" id="el5ysflb02s9k" class="animable"></path><path d="M275.86,110.18c0,.23.72.51,1.5,1.06s1.34,1.13,1.54,1,.07-.3-.1-.63a3,3,0,0,0-1-1.06,3.15,3.15,0,0,0-1.35-.52C276.11,110,275.88,110.07,275.86,110.18Z" style="fill: rgb(38, 50, 56); transform-origin: 277.431px 111.141px;" id="el6qlaaiwmb0l" class="animable"></path><path d="M270,105.83c0,.23.62.32,1.21.62s1,.69,1.23.58.1-.26,0-.53a2,2,0,0,0-2-1C270.1,105.59,270,105.72,270,105.83Z" style="fill: rgb(38, 50, 56); transform-origin: 271.284px 106.266px;" id="eloslror9214" class="animable"></path><path d="M276.58,100.28a11.62,11.62,0,0,0,1.77,9.11,12.35,12.35,0,0,1,2.1,3.34c.46,1.59-.08,3.39.59,4.91.76,1.73,2.8,2.45,4.65,2.74s3.84.35,5.37,1.44c2.08,1.49,2.94,4.63,5.4,5.29,2.72.73,5.64-2.16,8.19-1,1.54.73,2.19,2.67,3.65,3.55s3.57.4,5.35,0,4-.61,5.16.78" style="fill: rgb(38, 50, 56); transform-origin: 297.556px 115.36px;" id="elcgcv4rff0w" class="animable"></path><path d="M318.81,130.45a3.57,3.57,0,0,0-2.15-.95,8,8,0,0,0-2.79.27,14.23,14.23,0,0,1-3.76.63,3.88,3.88,0,0,1-2.17-.7,8.74,8.74,0,0,1-1.66-1.77,4.79,4.79,0,0,0-1.81-1.6,3.69,3.69,0,0,0-2.5,0c-.88.22-1.75.59-2.7.87a5,5,0,0,1-3.07.13,5.41,5.41,0,0,1-2.49-2c-.65-.84-1.21-1.73-1.92-2.5a5.24,5.24,0,0,0-2.53-1.58,18.71,18.71,0,0,0-3-.53,11.22,11.22,0,0,1-2.93-.72,4.78,4.78,0,0,1-2.3-1.85,5.2,5.2,0,0,1-.6-2.73,10.49,10.49,0,0,0-.17-2.49c-.39-1.54-1.61-2.62-2.33-3.84a11.69,11.69,0,0,1-1.74-6.4,10.34,10.34,0,0,1,.21-1.8,2.59,2.59,0,0,1,.17-.61,22,22,0,0,0-.17,2.42,11.74,11.74,0,0,0,1.84,6.2c.7,1.16,2,2.21,2.44,3.92a11.19,11.19,0,0,1,.21,2.59,4.75,4.75,0,0,0,.55,2.49,4.34,4.34,0,0,0,2.08,1.64,10.69,10.69,0,0,0,2.81.67,18.89,18.89,0,0,1,3.07.55,5.71,5.71,0,0,1,2.77,1.72c.74.81,1.31,1.72,1.94,2.53a5,5,0,0,0,2.24,1.8,4.61,4.61,0,0,0,2.77-.12c.91-.27,1.79-.64,2.72-.87a4.2,4.2,0,0,1,2.8.09,5.26,5.26,0,0,1,2,1.75,8.16,8.16,0,0,0,1.56,1.72,3.5,3.5,0,0,0,1.95.65,14.16,14.16,0,0,0,3.68-.55,8.16,8.16,0,0,1,2.88-.18,3.4,3.4,0,0,1,1.69.68A1.68,1.68,0,0,1,318.81,130.45Z" style="fill: rgb(69, 90, 100); transform-origin: 297.499px 115.365px;" id="eleojq3dtnfea" class="animable"></path><path d="M319.68,123.57a3.82,3.82,0,0,1-.52.17A10.08,10.08,0,0,1,309,120a11.14,11.14,0,0,0-3.14-3.09,8.89,8.89,0,0,0-4.75-.75,33,33,0,0,1-5.41.21,8.2,8.2,0,0,1-2.71-.69,4.91,4.91,0,0,1-2.1-1.8c-1-1.59-1-3.37-1.66-4.74a3.63,3.63,0,0,0-1.47-1.58,8.12,8.12,0,0,0-2-.72,15.16,15.16,0,0,1-3.83-1.11,8.23,8.23,0,0,1-3.82-4.23,7,7,0,0,1-.42-1.51,3.24,3.24,0,0,1,0-.55,14.27,14.27,0,0,0,.64,2,8.3,8.3,0,0,0,3.81,4,15.71,15.71,0,0,0,3.75,1,7.93,7.93,0,0,1,2.14.75,4.12,4.12,0,0,1,1.67,1.76c.76,1.5.78,3.27,1.66,4.68a5.68,5.68,0,0,0,4.43,2.24,33.76,33.76,0,0,0,5.33-.2,9.41,9.41,0,0,1,5,.83,11.68,11.68,0,0,1,3.25,3.25,9.94,9.94,0,0,0,2.85,2.58,10.27,10.27,0,0,0,5.38,1.44C318.94,123.74,319.66,123.51,319.68,123.57Z" style="fill: rgb(69, 90, 100); transform-origin: 298.679px 111.705px;" id="elch7ubdgwgfn" class="animable"></path><path d="M275.11,133.32a24.48,24.48,0,0,1,7.88,6c1.46.33,18.53,18.42,25.84,26.23a10.16,10.16,0,0,1,2.09,10.52,10.36,10.36,0,0,1-11.15,6.44l-24.35-3.27,1.68-12.5,16.06,2.16-17.9-15.57c-8.91,13.31-23.65,32.46-26.75,35.39L225.2,163.26l13.7-11.15L244.17,139c-4.56-.49-24.75,2.2-28.72-3.39s12.5-32,12.5-32l8.05,5.17L229.15,126s12.59-.66,22.32-.48a19.21,19.21,0,0,1,5.72,1c1.15.38,5.72,1.76,5.72,1.76l.09.62a5.78,5.78,0,0,0,6.27,5Z" style="fill: #E6C0E9; transform-origin: 263.202px 146.165px;" id="elh1n71enfcpi" class="animable"></path><path d="M248.22,177a8.1,8.1,0,0,1-1.63-1.65,29.52,29.52,0,0,1-3.16-4.6,27.81,27.81,0,0,1-2.57-6.21l.26-.09a3.59,3.59,0,0,1,.3,1.14,4,4,0,0,1-.56-1l.26-.09a45.49,45.49,0,0,0,2.76,6C246,174.26,248.35,176.87,248.22,177Z" style="fill: rgb(38, 50, 56); transform-origin: 244.543px 170.725px;" id="eloc6uv1lqe3r" class="animable"></path><path d="M252.08,163.55a7.92,7.92,0,0,1-1.84-1c-1.09-.71-2.57-1.74-4.14-3s-2.93-2.4-3.89-3.28a8.34,8.34,0,0,1-1.47-1.52c.1-.11,2.55,2,5.68,4.39S252.17,163.43,252.08,163.55Z" style="fill: rgb(38, 50, 56); transform-origin: 246.411px 159.148px;" id="elwvtdgrnfajh" class="animable"></path><path d="M260.83,159.48a11.9,11.9,0,0,1-2.95-.19,34.13,34.13,0,0,1-13.31-4.9,12,12,0,0,1-2.37-1.77c.05-.06,1,.56,2.56,1.45a43.52,43.52,0,0,0,6.39,3,44.79,44.79,0,0,0,6.79,1.87A28.7,28.7,0,0,1,260.83,159.48Z" style="fill: rgb(38, 50, 56); transform-origin: 251.515px 156.059px;" id="elsptdny9x68q" class="animable"></path><path d="M289.38,146a25,25,0,0,1-1.75-2.21,39.37,39.37,0,0,0-4.62-4.95,40.42,40.42,0,0,0-5.41-4.08,24.16,24.16,0,0,1-2.38-1.5,10.51,10.51,0,0,1,2.57,1.19,31.34,31.34,0,0,1,10.14,9.12A10.93,10.93,0,0,1,289.38,146Z" style="fill: rgb(38, 50, 56); transform-origin: 282.3px 139.63px;" id="elmanh7eu3hx" class="animable"></path><path d="M290.2,146.84a3.1,3.1,0,0,1-.53.14l-1.55.32-2.47.47c-1,.17-2,.41-3.29.53a7.77,7.77,0,0,1-4-.55,7,7,0,0,1-1.87-1.36,13.45,13.45,0,0,1-1.47-1.93c-.89-1.38-1.63-2.93-2.69-4.3a7.62,7.62,0,0,0-1.89-1.78,6.81,6.81,0,0,0-2.49-.94,18.28,18.28,0,0,0-5.38.06,18.64,18.64,0,0,1-5.16.07,12.92,12.92,0,0,1-7.49-4.25,12.53,12.53,0,0,1-2.77-5.14,9.52,9.52,0,0,1-.26-1.58,2.08,2.08,0,0,1,0-.55c.06,0,.09.76.47,2.07a13,13,0,0,0,2.85,4.95,12.7,12.7,0,0,0,7.3,4,18.5,18.5,0,0,0,5-.11,18.64,18.64,0,0,1,5.54-.06,7.28,7.28,0,0,1,2.67,1,8.14,8.14,0,0,1,2,1.91c1.11,1.44,1.84,3,2.7,4.36a12.69,12.69,0,0,0,1.39,1.86,6.74,6.74,0,0,0,1.72,1.29,7.43,7.43,0,0,0,3.83.57c1.21-.09,2.31-.3,3.27-.45l2.48-.38,1.57-.22A1.76,1.76,0,0,1,290.2,146.84Z" style="fill: rgb(250, 250, 250); transform-origin: 268.536px 137.206px;" id="eluey2tmrb0t" class="animable"></path><path d="M238.17,138.87A6.91,6.91,0,0,1,236,138a10.88,10.88,0,0,1-4.18-3.91,7.57,7.57,0,0,1-.83-5.64,4.91,4.91,0,0,1,.73-1.6c.23-.34.4-.5.43-.48a11.93,11.93,0,0,0-.8,2.16,7.68,7.68,0,0,0,.92,5.3,11.73,11.73,0,0,0,3.92,3.85C237.38,138.43,238.2,138.79,238.17,138.87Z" style="fill: rgb(250, 250, 250); transform-origin: 234.472px 132.619px;" id="el7en48x6ma4" class="animable"></path><path d="M273.13,156.35c0,.05-.52,0-1.44,0a16.59,16.59,0,0,0-3.83.85,24,24,0,0,1-2.67.69,7.88,7.88,0,0,1-3.21,0,10.64,10.64,0,0,1-5.87-4.19c-1.58-2.07-2.66-4.26-3.9-6.07a13.08,13.08,0,0,0-4-4.09,7.6,7.6,0,0,0-3.66-1.18c-.92,0-1.43.11-1.44.06a1.3,1.3,0,0,1,.36-.12,4.28,4.28,0,0,1,1.08-.14,7.37,7.37,0,0,1,3.84,1.06,12.94,12.94,0,0,1,4.23,4.14c1.29,1.83,2.39,4,3.92,6a10.37,10.37,0,0,0,5.57,4c2.11.49,4.07-.17,5.67-.58a15.46,15.46,0,0,1,3.92-.7,5.6,5.6,0,0,1,1.09.1C273,156.3,273.13,156.33,273.13,156.35Z" style="fill: rgb(250, 250, 250); transform-origin: 258.12px 150.108px;" id="elwdj8i416aq" class="animable"></path><path d="M297.61,154.43s-.22-.15-.64-.34a3.69,3.69,0,0,0-1.87-.26,5.2,5.2,0,0,0-2.58,1.11,31.42,31.42,0,0,0-2.65,2.43,8.12,8.12,0,0,1-3.11,2,6.89,6.89,0,0,1-3,.26,6.07,6.07,0,0,1-1.94-.61,1.68,1.68,0,0,1-.61-.42,11.71,11.71,0,0,0,2.59.66,6.79,6.79,0,0,0,2.83-.35,8,8,0,0,0,2.91-1.92,25.26,25.26,0,0,1,2.72-2.44,5.32,5.32,0,0,1,2.83-1.09,3.57,3.57,0,0,1,2,.45C297.48,154.18,297.63,154.41,297.61,154.43Z" style="fill: rgb(250, 250, 250); transform-origin: 289.411px 156.571px;" id="el8r9n7yjl0qi" class="animable"></path><path d="M311.17,174.3c-.1,0-.27-1.31-1.15-3.22a7.46,7.46,0,0,0-2.24-2.81,5,5,0,0,0-4.1-1,15.33,15.33,0,0,0-4,2,7,7,0,0,1-3.63,1.17,3.54,3.54,0,0,1-2.38-.95,1.42,1.42,0,0,1-.49-.8s.17.29.62.65a3.5,3.5,0,0,0,2.26.73,6.85,6.85,0,0,0,3.37-1.22,14.81,14.81,0,0,1,4.13-2.1,5.32,5.32,0,0,1,4.51,1.1,7.57,7.57,0,0,1,2.29,3,11.11,11.11,0,0,1,.72,2.44A2.44,2.44,0,0,1,311.17,174.3Z" style="fill: rgb(250, 250, 250); transform-origin: 302.184px 170.465px;" id="eli1c910ewkv" class="animable"></path><path d="M283.86,179.91a2.53,2.53,0,0,0,1.44-1,2.78,2.78,0,0,0,.39-1.84,7.8,7.8,0,0,0-.76-2.31,12.19,12.19,0,0,1-1-2.39,3.62,3.62,0,0,1,.1-2.16,2.43,2.43,0,0,1,.87-1.16c.29-.19.49-.21.5-.18a3,3,0,0,0-1,1.46,3.49,3.49,0,0,0,0,1.92,14.09,14.09,0,0,0,1,2.29,7.39,7.39,0,0,1,.77,2.49,3,3,0,0,1-.57,2.09,2.09,2.09,0,0,1-1.2.82C284.05,180,283.86,179.94,283.86,179.91Z" style="fill: rgb(250, 250, 250); transform-origin: 284.999px 174.412px;" id="el46ya6gba2h9" class="animable"></path><path d="M256.14,179.39a4.56,4.56,0,0,0,.22-1.29,4.18,4.18,0,0,0-1.55-3.08,13.91,13.91,0,0,0-4.88-2.16,11.53,11.53,0,0,1-3-1.37,8,8,0,0,1-2.35-2.66,25.81,25.81,0,0,1-2.12-6.38,14.06,14.06,0,0,0-2.07-4.92,7,7,0,0,0-2.74-2.27c-.79-.33-1.28-.36-1.27-.41s.12,0,.35,0a4.42,4.42,0,0,1,1,.22,6.67,6.67,0,0,1,3,2.24,13.63,13.63,0,0,1,2.25,5,26.34,26.34,0,0,0,2.11,6.25,7.52,7.52,0,0,0,2.18,2.49,11.11,11.11,0,0,0,2.84,1.33,13.75,13.75,0,0,1,5,2.34,4.32,4.32,0,0,1,1.52,3.36,2.73,2.73,0,0,1-.24,1C256.23,179.3,256.15,179.4,256.14,179.39Z" style="fill: rgb(250, 250, 250); transform-origin: 246.505px 167.109px;" id="elf7dfartp1ta" class="animable"></path><path d="M250.63,186.31a15.42,15.42,0,0,0-2-4.29,15,15,0,0,0-3.6-3.08,2.87,2.87,0,0,1,1.36.48,8.38,8.38,0,0,1,2.65,2.29,8.28,8.28,0,0,1,1.5,3.16A2.89,2.89,0,0,1,250.63,186.31Z" style="fill: rgb(250, 250, 250); transform-origin: 247.856px 182.625px;" id="elde5tmjk17eh" class="animable"></path><path d="M230.39,126.38s-.24-.08-.66-.13a3.36,3.36,0,0,0-1.73.39c-1.38.66-3,2.17-5,3.53a10.78,10.78,0,0,1-3.11,1.52,7.15,7.15,0,0,1-2.82.28,4.77,4.77,0,0,1-1.82-.59c-.4-.22-.57-.41-.55-.43a8,8,0,0,0,2.4.65,9.13,9.13,0,0,0,5.61-1.86c2-1.33,3.63-2.8,5.15-3.44a3.21,3.21,0,0,1,1.91-.25C230.21,126.17,230.4,126.36,230.39,126.38Z" style="fill: rgb(250, 250, 250); transform-origin: 222.544px 129.004px;" id="elsmr0vdwjbb" class="animable"></path><path d="M231,120.44s-.07-.17-.27-.37a1.46,1.46,0,0,0-1.08-.4,17.4,17.4,0,0,1-4.3.19,5.47,5.47,0,0,1-2.29-.84,4.29,4.29,0,0,1-1.38-1.46,2.19,2.19,0,0,1-.35-1.77,6.66,6.66,0,0,0,.66,1.58,4.93,4.93,0,0,0,3.44,2,11.2,11.2,0,0,0,2.3.06c.71,0,1.35-.15,1.94-.11a1.56,1.56,0,0,1,1.22.65C231.08,120.24,231,120.44,231,120.44Z" style="fill: rgb(250, 250, 250); transform-origin: 226.145px 118.115px;" id="elfx768od72ik" class="animable"></path><g id="elnev4ntqcfva"><g style="opacity: 0.3; transform-origin: 266.841px 164.668px;" class="animable" id="elxx9hy0tw28"><path d="M275,153.5c1.48-4.45-5.54,7.62-9.25,10.48a22.45,22.45,0,0,0-4.83,4.27c-1.76,2.44-2.13,5.57-2.44,8.56C258.43,176.81,274,156.44,275,153.5Z" id="el03pcdscs65mo" class="animable" style="transform-origin: 266.841px 164.668px;"></path></g></g><path d="M178.66,253.49l.45-7.08,13.27.76-.55,10.36H191c-3.68,0-18.68-.29-21.09-1.18C167.24,255.38,178.66,253.49,178.66,253.49Z" style="fill: #E6C0E9; transform-origin: 180.943px 251.97px;" id="elwqyhz7d60rs" class="animable"></path><g id="el3lpizkwk1t"><g style="opacity: 0.4; transform-origin: 189.505px 255.468px;" class="animable" id="elmf1m99y53r"><path d="M187,257.15a4.57,4.57,0,0,1,1.85-2.73,4.51,4.51,0,0,1,3.16-.79l-.21,3.71Z" id="elazg7sgq0m3" class="animable" style="transform-origin: 189.505px 255.468px;"></path></g></g><g id="eln0mn7yuugd"><path d="M173.07,254.61s-4,.91-3.56,1.59,15.61,1.54,22.32,1.33v-.3l-17.68-.85S173.84,254.68,173.07,254.61Z" style="opacity: 0.4; transform-origin: 180.653px 256.086px;" class="animable" id="elzu04qx9uijc"></path></g><path d="M192,257.24h-.89l-2.42,0c-2,0-4.86-.14-8-.31s-5.92-.4-8-.58l-2.4-.24-.66-.07-.22,0h.23l.65,0,2.41.19c2,.15,4.85.35,8,.53s5.92.28,8,.36l2.42.08.66,0Z" style="fill: rgb(38, 50, 56); transform-origin: 180.705px 256.64px;" id="elc8zqyhegy5" class="animable"></path><path d="M174.14,256.59a3.55,3.55,0,0,0-1.16-2.15,1.8,1.8,0,0,1,.91.9A1.75,1.75,0,0,1,174.14,256.59Z" style="fill: rgb(38, 50, 56); transform-origin: 173.573px 255.515px;" id="el243h894j227" class="animable"></path><path d="M178.17,254.83s-.22-.22-.39-.54-.29-.59-.25-.61.21.22.39.53A1.67,1.67,0,0,1,178.17,254.83Z" style="fill: rgb(38, 50, 56); transform-origin: 177.846px 254.254px;" id="elrxg8mbwdv8m" class="animable"></path><path d="M179.27,254.32s-.23-.12-.45-.34-.37-.42-.33-.45.23.12.45.34S179.3,254.29,179.27,254.32Z" style="fill: rgb(38, 50, 56); transform-origin: 178.879px 253.923px;" id="el1t95c63wyif" class="animable"></path><path d="M180,253.1c0,.05-.31.07-.69.05s-.7-.06-.69-.11a1.55,1.55,0,0,1,.69,0A1.69,1.69,0,0,1,180,253.1Z" style="fill: rgb(38, 50, 56); transform-origin: 179.31px 253.079px;" id="el669buwz4lcv" class="animable"></path><path d="M180.31,252.23a1.38,1.38,0,0,1-.79.19,1.41,1.41,0,0,1-.79-.16,5,5,0,0,1,.79,0A6,6,0,0,1,180.31,252.23Z" style="fill: rgb(38, 50, 56); transform-origin: 179.52px 252.327px;" id="elsahr59t2awe" class="animable"></path><path d="M177.78,253.64a2.42,2.42,0,0,1-.85,0,6,6,0,0,1-.9-.25,3,3,0,0,1-.51-.25.42.42,0,0,1-.19-.27.35.35,0,0,1,.15-.34,1.56,1.56,0,0,1,1.9.57,1.5,1.5,0,0,1,.25.58.45.45,0,0,1,0,.24,2.41,2.41,0,0,0-.35-.75,1.54,1.54,0,0,0-.7-.52,1.38,1.38,0,0,0-1,0c-.14.1-.1.26.05.36a2.28,2.28,0,0,0,.47.23,5.67,5.67,0,0,0,.86.28C177.46,253.6,177.78,253.62,177.78,253.64Z" style="fill: rgb(38, 50, 56); transform-origin: 176.553px 253.164px;" id="eloyrb07kthhf" class="animable"></path><path d="M177.56,253.67a.84.84,0,0,1-.07-.6,1.53,1.53,0,0,1,.27-.61.85.85,0,0,1,.74-.39.35.35,0,0,1,.24.41,1,1,0,0,1-.17.37,2.38,2.38,0,0,1-.43.49,1.14,1.14,0,0,1-.51.32s.18-.14.43-.4a3.64,3.64,0,0,0,.39-.49c.12-.17.22-.49,0-.54s-.44.16-.58.33a1.4,1.4,0,0,0-.28.54A3.34,3.34,0,0,0,177.56,253.67Z" style="fill: rgb(38, 50, 56); transform-origin: 178.106px 252.87px;" id="elwvdwaw4fun" class="animable"></path><path d="M192,253.59s-.38-.06-1,0a4.16,4.16,0,0,0-3.63,2.57c-.24.56-.28.94-.31.94a.7.7,0,0,1,0-.27,3,3,0,0,1,.18-.71,4,4,0,0,1,3.73-2.64,2.87,2.87,0,0,1,.73.06A.76.76,0,0,1,192,253.59Z" style="fill: rgb(38, 50, 56); transform-origin: 189.523px 255.289px;" id="elpo6twflr2tj" class="animable"></path><path d="M190.91,248a23.45,23.45,0,0,1,0,2.73,25.78,25.78,0,0,1-.2,2.73,21.06,21.06,0,0,1,0-2.73A20.67,20.67,0,0,1,190.91,248Z" style="fill: rgb(38, 50, 56); transform-origin: 190.808px 250.73px;" id="el5dwbbizht4m" class="animable"></path><path d="M185.43,255.76a7.08,7.08,0,0,1-2,.09,7.46,7.46,0,0,1-1.93-.27c0-.05.87.06,1.94.11S185.43,255.72,185.43,255.76Z" style="fill: rgb(38, 50, 56); transform-origin: 183.465px 255.725px;" id="elte53ytwr0qf" class="animable"></path><path d="M188,255.91s-.08.18-.18.37-.16.37-.2.36-.06-.21.06-.43S188,255.87,188,255.91Z" style="fill: rgb(38, 50, 56); transform-origin: 187.795px 256.271px;" id="eldd7dblegnsa" class="animable"></path><path d="M189.08,254.74s-.06.17-.21.3-.29.21-.32.18.07-.17.21-.3S189.05,254.71,189.08,254.74Z" style="fill: rgb(38, 50, 56); transform-origin: 188.812px 254.98px;" id="ele9pup7m2lf" class="animable"></path><path d="M190.51,254.27s-.18,0-.38.09-.35.15-.38.12.09-.21.33-.28S190.53,254.23,190.51,254.27Z" style="fill: rgb(38, 50, 56); transform-origin: 190.128px 254.332px;" id="elrgi9xa1blwb" class="animable"></path><path d="M191.53,254.06s-.07.11-.18.14-.22,0-.23,0,.07-.11.18-.14S191.51,254,191.53,254.06Z" style="fill: rgb(38, 50, 56); transform-origin: 191.325px 254.119px;" id="elncdglndd86m" class="animable"></path><path d="M155,214.59l3.08-5.84,11,5.69L164.67,223l-.7-.3c-3.12-1.41-15.75-7.36-17.46-9C144.61,211.85,155,214.59,155,214.59Z" style="fill: #E6C0E9; transform-origin: 157.679px 215.875px;" id="elwnk6gm7djz" class="animable"></path><g id="el9hu7absmkyg"><g style="opacity: 0.4; transform-origin: 163.545px 221.03px;" class="animable" id="eluo8in27orm"><path d="M160.74,220.88a4.3,4.3,0,0,1,2.61-1.61,4.2,4.2,0,0,1,3,.53l-1.59,3.07Z" id="elqqlphbdfz2l" class="animable" style="transform-origin: 163.545px 221.03px;"></path></g></g><g id="el60euay0dj6e"><path d="M149.85,213.41s-3.75-.75-3.63,0,12.67,7.24,18.45,9.62l.11-.25-14.69-7.45S150.48,213.77,149.85,213.41Z" style="opacity: 0.4; transform-origin: 155.499px 218.053px;" class="animable" id="elpp8a5dae2l"></path></g><path d="M165,222.86s-.07,0-.2-.07l-.56-.25-2-.95c-1.72-.81-4.08-2-6.65-3.3s-4.88-2.59-6.54-3.52L147,213.65l-.53-.31c-.12-.07-.18-.11-.17-.12l.19.1.54.28,2,1.08c1.67.91,4,2.15,6.56,3.48s4.92,2.5,6.62,3.33l2,1,.55.28Z" style="fill: rgb(38, 50, 56); transform-origin: 155.649px 218.04px;" id="elsojxdy1lcoe" class="animable"></path><path d="M150,215.5a5.79,5.79,0,0,0,.12-1.14,4.82,4.82,0,0,0-.29-1.12,1.63,1.63,0,0,1,.44,1.1A1.66,1.66,0,0,1,150,215.5Z" style="fill: rgb(38, 50, 56); transform-origin: 150.058px 214.37px;" id="elz3c8a1g6odr" class="animable"></path><path d="M154.1,215.54a1.37,1.37,0,0,1-.13-.61,1.31,1.31,0,0,1,0-.61,2.52,2.52,0,0,1,.11,1.22Z" style="fill: rgb(38, 50, 56); transform-origin: 154.022px 214.93px;" id="el2qnyg4i7c7b" class="animable"></path><path d="M155.23,215.53s-.15-.19-.25-.46a1.16,1.16,0,0,1-.12-.51s.16.19.26.45S155.27,215.51,155.23,215.53Z" style="fill: rgb(38, 50, 56); transform-origin: 155.052px 215.045px;" id="elfr4f9tdtlu" class="animable"></path><path d="M156.33,214.78s-.29-.06-.61-.22-.56-.32-.54-.36.29.06.61.22S156.35,214.74,156.33,214.78Z" style="fill: rgb(38, 50, 56); transform-origin: 155.755px 214.486px;" id="ell446qe7f8hj" class="animable"></path><path d="M156.9,214.15a1.22,1.22,0,0,1-.73-.15c-.39-.16-.64-.39-.62-.43a4,4,0,0,1,.67.3A3.53,3.53,0,0,1,156.9,214.15Z" style="fill: rgb(38, 50, 56); transform-origin: 156.224px 213.864px;" id="elb77ci9haz" class="animable"></path><path d="M154.22,214.38a2.11,2.11,0,0,1-.7-.37,3.87,3.87,0,0,1-.67-.55,2.83,2.83,0,0,1-.34-.4.51.51,0,0,1-.06-.31.34.34,0,0,1,.26-.23,1.46,1.46,0,0,1,1.4,1.21,1.4,1.4,0,0,1,0,.59c0,.14-.07.2-.08.2a2.46,2.46,0,0,0,0-.77,1.48,1.48,0,0,0-.4-.7,1.24,1.24,0,0,0-.87-.38c-.16,0-.18.18-.1.32a2.76,2.76,0,0,0,.31.37,6.12,6.12,0,0,0,.63.57C154,214.22,154.23,214.36,154.22,214.38Z" style="fill: rgb(38, 50, 56); transform-origin: 153.333px 213.52px;" id="el3bqwzzjmafr" class="animable"></path><path d="M154,214.32a.86.86,0,0,1,.17-.53,1.33,1.33,0,0,1,.46-.41.79.79,0,0,1,.78-.06.33.33,0,0,1,0,.44.84.84,0,0,1-.29.25,2.07,2.07,0,0,1-.55.26,1.06,1.06,0,0,1-.55.07s.2-.05.51-.17a2.6,2.6,0,0,0,.52-.27c.17-.1.38-.34.22-.46a.69.69,0,0,0-.62.06,1.35,1.35,0,0,0-.44.36A3.75,3.75,0,0,0,154,214.32Z" style="fill: rgb(38, 50, 56); transform-origin: 154.747px 213.797px;" id="el8o93b2zpsk" class="animable"></path><path d="M166.29,219.74s-.3-.19-.83-.39a3.87,3.87,0,0,0-4.06.8c-.41.39-.59.69-.62.68a.79.79,0,0,1,.12-.22,2.42,2.42,0,0,1,.43-.53,3.7,3.7,0,0,1,2-1.06,3.69,3.69,0,0,1,2.81.56A.73.73,0,0,1,166.29,219.74Z" style="fill: rgb(38, 50, 56); transform-origin: 163.535px 219.888px;" id="elv8dr4qvgmw" class="animable"></path><path d="M167.52,214.58a23.08,23.08,0,0,1-1.07,2.31,25.34,25.34,0,0,1-1.21,2.24,19.74,19.74,0,0,1,1.07-2.31A21.26,21.26,0,0,1,167.52,214.58Z" style="fill: rgb(38, 50, 56); transform-origin: 166.38px 216.855px;" id="elqlg378snmzm" class="animable"></path><path d="M159.91,219.1a7.75,7.75,0,0,1-1.69-.67,7.85,7.85,0,0,1-1.54-1s.72.37,1.61.82S159.92,219.06,159.91,219.1Z" style="fill: rgb(38, 50, 56); transform-origin: 158.295px 218.265px;" id="eleopbtvj1eub" class="animable"></path><path d="M162.06,220.21s-.14.12-.29.25-.28.25-.31.23,0-.21.21-.35S162.05,220.17,162.06,220.21Z" style="fill: rgb(38, 50, 56); transform-origin: 161.755px 220.443px;" id="elqg5c2bf375" class="animable"></path><path d="M163.4,219.62s-.12.12-.29.17-.33.07-.34,0,.12-.11.29-.17S163.38,219.58,163.4,219.62Z" style="fill: rgb(38, 50, 56); transform-origin: 163.085px 219.709px;" id="elcn5g7uyndpd" class="animable"></path><path d="M164.8,219.76s-.18,0-.37-.07-.35,0-.36,0,.15-.15.39-.11S164.82,219.73,164.8,219.76Z" style="fill: rgb(38, 50, 56); transform-origin: 164.436px 219.667px;" id="el3h8y2s0fqxd" class="animable"></path><path d="M165.73,220s-.09.06-.2.05-.2-.05-.19-.09.1-.07.2-.06S165.74,219.93,165.73,220Z" style="fill: rgb(38, 50, 56); transform-origin: 165.535px 219.975px;" id="ellfqffo77k9l" class="animable"></path><path d="M201.54,168.24a4.78,4.78,0,1,1-5.29-4.21A4.78,4.78,0,0,1,201.54,168.24Z" style="fill: rgb(255, 255, 255); transform-origin: 196.791px 168.779px;" id="elik9g0sa6ag" class="animable"></path><path d="M182.9,192.2a1.64,1.64,0,0,1-3.25.38,1.64,1.64,0,1,1,3.25-.38Z" style="fill: rgb(255, 255, 255); transform-origin: 181.262px 192.277px;" id="elffi4omv1l8t" class="animable"></path><path d="M245.43,185.07l.22,0-19.82-21.31s-44.75-7.66-48.19-2.85-22.86,52.36-22.86,52.36l13.66,6.63,7.35-14.52c.52,16.81,2.45,46.11,2.45,46.11l15.18,0,.67-44.73,40-6.44c6.15-1,11.56-6.08,14.42-11.61Zm-61.52,4.28,4.73-9.34,18.47,1.64C198.79,184.07,190,186.84,183.91,189.35Z" style="fill: rgb(38, 50, 56); transform-origin: 201.645px 205.407px;" id="elq9zog3k1iom" class="animable"></path><path d="M229.51,174.49a22.32,22.32,0,0,1-3.21,2.63,21.12,21.12,0,0,1-3.44,2.32,23.13,23.13,0,0,1,3.21-2.63A21.12,21.12,0,0,1,229.51,174.49Z" style="fill: rgb(69, 90, 100); transform-origin: 226.185px 176.965px;" id="elaad6aqdpw9p" class="animable"></path><path d="M238.4,180.93c.06,0-.31.54-.53,1.47a4.6,4.6,0,0,0,3.47,5.65c.93.23,1.54.13,1.55.2a2.83,2.83,0,0,1-1.61.07,4.78,4.78,0,0,1-3.21-2.15,4.85,4.85,0,0,1-.47-3.84A2.75,2.75,0,0,1,238.4,180.93Z" style="fill: rgb(69, 90, 100); transform-origin: 240.145px 184.667px;" id="elo6tbywpfrp" class="animable"></path><path d="M220.71,179.08l-.19.06-.56.16-2.18.55c-1.89.48-4.65,1.11-8,2-6.69,1.94-16,4.46-26.19,7.51a20,20,0,0,0-3.48,1.77,11.8,11.8,0,0,0-2.9,2.36,7.35,7.35,0,0,0-1.4,3.29,14.59,14.59,0,0,0-.16,3.48c.34,4.6.61,8.75.8,12.24s.29,6.31.31,8.26c0,1,0,1.74-.05,2.25,0,.26,0,.45-.06.58a.69.69,0,0,1,0,.2,7.57,7.57,0,0,1,0-.78c0-.52,0-1.27,0-2.25-.06-2-.21-4.76-.44-8.25s-.52-7.62-.87-12.22a14,14,0,0,1,.15-3.58,7.63,7.63,0,0,1,1.46-3.45,11.89,11.89,0,0,1,3-2.46,20.33,20.33,0,0,1,3.54-1.81c5.13-1.54,10-2.92,14.44-4.14l11.82-3.26c3.38-.91,6.14-1.49,8-1.93l2.2-.48.57-.12C220.64,179.08,220.71,179.07,220.71,179.08Z" style="fill: rgb(69, 90, 100); transform-origin: 197.999px 201.425px;" id="elpb533x5o1xn" class="animable"></path><path d="M190.11,204.89a46.58,46.58,0,0,1,3.75,1.36,5.81,5.81,0,0,1-3.75-1.36Z" style="fill: rgb(69, 90, 100); transform-origin: 191.985px 205.57px;" id="el29pkg7wd1ff" class="animable"></path><path d="M191.2,202.6a6.33,6.33,0,0,1,1.46,1.6,6,6,0,0,1,1.15,1.84,6.12,6.12,0,0,1-1.46-1.6A6,6,0,0,1,191.2,202.6Z" style="fill: rgb(69, 90, 100); transform-origin: 192.505px 204.32px;" id="elungwv9nmqy" class="animable"></path><path d="M185.66,176.32a12.4,12.4,0,0,1,1.44,1.92,12.61,12.61,0,0,1,1.38,2,5.52,5.52,0,0,1-1.69-1.74A5.45,5.45,0,0,1,185.66,176.32Z" style="fill: rgb(69, 90, 100); transform-origin: 187.07px 178.28px;" id="eljs6s2vwrb2g" class="animable"></path><path d="M188.11,175.36a7.73,7.73,0,0,1,.55,2.42,8.31,8.31,0,0,1,.17,2.48,8.07,8.07,0,0,1-.55-2.42A8.31,8.31,0,0,1,188.11,175.36Z" style="fill: rgb(69, 90, 100); transform-origin: 188.47px 177.81px;" id="elmrseasijbs8" class="animable"></path><path d="M229.76,176.69s-.21-.29.12-.67a.7.7,0,0,1,.8-.17.8.8,0,0,1-.29,1.55.75.75,0,0,1-.71-.42c-.21-.44,0-.72.06-.68s0,.27.18.54a.46.46,0,0,0,.44.2.46.46,0,0,0,.17-.87.44.44,0,0,0-.47.05C229.79,176.42,229.82,176.69,229.76,176.69Z" style="fill: rgb(69, 90, 100); transform-origin: 230.395px 176.596px;" id="elqf6qhtdenn" class="animable"></path><path d="M218.8,165.07c.07,0-.12.54-.05,1.4a3.89,3.89,0,0,0,4.59,3.61,13.55,13.55,0,0,0,1.34-.38,2.29,2.29,0,0,1-1.29.65,4,4,0,0,1-4.92-3.87A2.31,2.31,0,0,1,218.8,165.07Z" style="fill: rgb(69, 90, 100); transform-origin: 221.57px 167.764px;" id="el3ytw6mlmcp6" class="animable"></path><path d="M225.15,162.8a12.69,12.69,0,0,1,1-4.3,5.48,5.48,0,0,1,3.13-3c2.77-.87,5.59,1.29,7.25,3.68,2.53,3.66,3.69,8.07,5.16,12.27s3.48,8.48,7.09,11.08" style="fill: #E6C0E9; transform-origin: 236.965px 168.917px;" id="elvt1rel50mqj" class="animable"></path><g id="el3w1fvoeeybp"><g style="opacity: 0.3; transform-origin: 235.899px 170.907px;" class="animable" id="el953zpfp9lji"><path d="M225.15,162.8a12.69,12.69,0,0,1,1-4.3,5.48,5.48,0,0,1,3.13-3c2.77-.87,5.59,1.29,7.25,3.68,2.53,3.66,3.69,8.07,5.16,12.27s5.72,9.95,4.84,15.06" id="elw0tcbmkmig" class="animable" style="transform-origin: 235.899px 170.907px;"></path></g></g><polygon points="225.2 163.26 230.71 161.1 244.03 178.8 245.35 182.48 248.51 188.7 225.2 163.26" style="fill: rgb(183, 136, 118); transform-origin: 236.855px 174.9px;" id="elxjnjh9myia" class="animable"></polygon><path d="M276.1,176.7c-2.8,0-8.11-.07-9.8-.29-3.47-.47-3.43-.78-3.31-1.17.33-1.07,6.14.58,5.1-.5s-7.34-1.19-6.95-2.28c.51-1.43,6.56.4,7.08.52s.71-.63.24-.71c-.69-.12-7.89-1.52-7.4-2.92.27-.78,1.62-.17,1.62-.17s6.64,1.8,6.85,1.13-3.65-1.87-5-2.18-1.7-1-1.09-1.52c.43-.32,4.52.53,5.83.86s4.88,1.32,3.51-.59-1.69-3.91-1.4-4.51a.74.74,0,0,1,1.36.3,8.62,8.62,0,0,0,1,2.16,5.93,5.93,0,0,0,1.22,1.46c.57.48,1.86,1.48,2.3,1.8Z" style="fill: rgb(183, 136, 118); transform-origin: 269.148px 169.362px;" id="elz3p1rrg62do" class="animable"></path></g><g id="freepik--Bitcoin--inject-36" class="animable" style="transform-origin: 252.337px 230.289px;"><path d="M444.32,41.53S416.9,30.62,356,91.54c0,0-63.4,54.51-29.51,77.41,28.84,19.49,66.9-8.42,87-26.69a201.93,201.93,0,0,0,30.37-35.94C457.74,84.86,466,56.51,444.32,41.53Z" style="fill: #E6C0E9; transform-origin: 387.071px 108.176px;" id="el0zl084vrq4s" class="animable"></path><g id="elmcbbkbtspv"><path d="M444.32,41.53S416.9,30.62,356,91.54c0,0-63.4,54.51-29.51,77.41,28.84,19.49,66.9-8.42,87-26.69a201.93,201.93,0,0,0,30.37-35.94C457.74,84.86,466,56.51,444.32,41.53Z" style="opacity: 0.4; transform-origin: 387.071px 108.176px;" class="animable" id="eltn820q978t"></path></g><path d="M442.24,40.75s-34-18.82-95,42.1c0,0-58.9,62.79-23,82.46,24.59,13.48,60.42-13.47,80.52-31.74C415.32,124,429.52,109,437.28,97,451.19,75.53,458.87,51.34,442.24,40.75Z" style="fill: #E6C0E9; transform-origin: 382.163px 103.479px;" id="elzn3dtaakt1f" class="animable"></path><g id="elsxqta8apnqo"><ellipse cx="382.34" cy="103.09" rx="68.15" ry="26.59" style="fill: rgb(255, 255, 255); opacity: 0.2; transform-origin: 382.34px 103.09px; transform: rotate(-45deg);" class="animable" id="elz4ol194sg6"></ellipse></g><path d="M417.43,73.07l-8.56,8.57-2.21-2.21L415,71.12l-4.33-4.32-8.9,8.9-3.4-3.39-45.2,45.2,2.29,2.29-9.19,8.61,5,5,9-9,1.4,1.4-8.74,8.74,4.79,4.79L368,129.13s3.74,3.9,16.63-7.13c9.82-8.4,7.8-16.53,7.8-16.53s4.92.59,12.21-5.18a25.65,25.65,0,0,0,8.73-14.5l8.4-8.39Zm-37.27,43.22c-7.28,6.23-13.35-2-13.35-2L378,103.09S387.45,110.07,380.16,116.29Zm17.77-19c-7,5.77-11-2.43-11-2.43l9.65-9.66S406,90.68,397.93,97.32Z" style="fill: #E6C0E9; transform-origin: 384.02px 103.07px;" id="elyb5m0jftogj" class="animable"></path><g id="elft8443vf58"><path d="M417.43,73.07l-8.56,8.57-2.21-2.21L415,71.12l-4.33-4.32-8.9,8.9-3.4-3.39-45.2,45.2,2.29,2.29-9.19,8.61,5,5,9-9,1.4,1.4-8.74,8.74,4.79,4.79L368,129.13s3.74,3.9,16.63-7.13c9.82-8.4,7.8-16.53,7.8-16.53s4.92.59,12.21-5.18a25.65,25.65,0,0,0,8.73-14.5l8.4-8.39Zm-37.27,43.22c-7.28,6.23-13.35-2-13.35-2L378,103.09S387.45,110.07,380.16,116.29Zm17.77-19c-7,5.77-11-2.43-11-2.43l9.65-9.66S406,90.68,397.93,97.32Z" style="opacity: 0.4; transform-origin: 384.02px 103.07px;" class="animable" id="elvuyf0lqci8s"></path></g><path d="M412.81,70.69l-8.57,8.56-2.2-2.2,8.31-8.31L406,64.41l-8.9,8.91-3.39-3.39-45.2,45.19,2.29,2.29-9.2,8.62,5,5,9-9,1.4,1.4-8.74,8.73,4.8,4.79,10.26-10.26s3.73,3.9,16.62-7.12c9.82-8.4,7.8-16.53,7.8-16.53s4.92.59,12.21-5.18a25.73,25.73,0,0,0,8.74-14.5l8.39-8.4Zm-37.27,43.22c-7.29,6.22-13.36-2-13.36-2l11.23-11.23S382.82,107.69,375.54,113.91Zm17.76-19c-7,5.77-11-2.43-11-2.43L392,82.85S401.33,88.3,393.3,94.94Z" style="fill: #E6C0E9; transform-origin: 379.34px 100.68px;" id="ellg7pzloxhb" class="animable"></path><path d="M438.32,39.34c0,.16-2.65-.38-7.44-.6a69.21,69.21,0,0,0-20.07,2.18,86.94,86.94,0,0,0-13.21,4.55,104.87,104.87,0,0,0-14.14,7.58c-9.59,6-19.17,14.1-28.78,23-19.35,17.66-32.59,38.07-38.35,54.16-2.84,8.06-3.42,15.12-2.63,19.82l.25,1.66.36,1.44c.11.45.22.86.31,1.24s.25.69.35,1a8.88,8.88,0,0,1,.58,1.85,9.31,9.31,0,0,1-.87-1.74c-.13-.29-.29-.61-.43-1s-.24-.79-.38-1.23-.3-.93-.44-1.45-.22-1.09-.33-1.69c-1-4.77-.57-12,2.19-20.27,5.57-16.42,18.81-37.12,38.33-54.95,9.64-8.94,19.33-17,29.08-23.08a102.52,102.52,0,0,1,14.39-7.56,84.7,84.7,0,0,1,13.46-4.43,65.58,65.58,0,0,1,20.37-1.72c1.21.07,2.27.22,3.2.35a23.07,23.07,0,0,1,2.32.39A9.61,9.61,0,0,1,438.32,39.34Z" style="fill: rgb(250, 250, 250); transform-origin: 375.464px 97.5744px;" id="el39kgni4vslq" class="animable"></path><g id="el1taojr2yvx1"><path d="M332.78,149.59s-18.09-22,27.33-68.55S430.53,54.9,430.53,54.9s-20.72-16.81-68.35,30.57C320.71,126.73,332.78,149.59,332.78,149.59Z" style="opacity: 0.4; transform-origin: 379.877px 100.017px;" class="animable" id="elel66k0kepc5"></path></g><path d="M407,64.41a14.73,14.73,0,0,1-2.45,2.64c-1.65,1.61-4.07,3.9-7.07,6.7l-.43.4-.4-.47L394,70.45l1,0c-4.6,4.68-10.24,10.36-16.37,16.44-8,7.92-15.28,15-20.61,20.12-2.67,2.55-4.85,4.59-6.37,6a12.27,12.27,0,0,1-2.49,2,12.82,12.82,0,0,1,2.06-2.47c1.4-1.52,3.45-3.68,6-6.32,5.13-5.29,12.3-12.53,20.29-20.45,6.13-6.08,11.84-11.68,16.56-16.24l.52-.5.43.55L397.56,73l-.83-.06c3.1-2.69,5.63-4.85,7.41-6.32A15.62,15.62,0,0,1,407,64.41Z" style="fill: rgb(250, 250, 250); transform-origin: 378.08px 89.71px;" id="elmrqj6f4mutp" class="animable"></path><path d="M394.5,94.45c.15.14,0,.64-.6,1.23a6.41,6.41,0,0,1-2.74,1.6,6.47,6.47,0,0,1-3.17.14c-.8-.19-1.22-.51-1.18-.71.11-.43,1.9-.31,3.91-.93S394.18,94.14,394.5,94.45Z" style="fill: rgb(250, 250, 250); transform-origin: 390.681px 95.9732px;" id="elnlzc1tng2c" class="animable"></path><path d="M373.31,115.53c.12.17-.06.55-.55,1a4.87,4.87,0,0,1-4.68.65c-.58-.25-.86-.57-.79-.77.16-.41,1.48-.27,3-.5S373,115.18,373.31,115.53Z" style="fill: rgb(250, 250, 250); transform-origin: 370.313px 116.458px;" id="eleeo2mm247l" class="animable"></path><path d="M412.3,111.52c.32.26-3.11,4.85-8.36,9.54s-10.17,7.61-10.4,7.27,4.21-3.81,9.36-8.43S412,111.23,412.3,111.52Z" style="fill: rgb(250, 250, 250); transform-origin: 402.926px 119.931px;" id="elvcgrxo9zct" class="animable"></path><path d="M355.89,175a1.42,1.42,0,0,1-.25-.26L355,174c-.53-.66-1.26-1.58-2-2.61a22.49,22.49,0,0,1-2.65-3.89,20.15,20.15,0,0,1,3.06,3.57C354.92,173.1,356.1,174.89,355.89,175Z" style="fill: rgb(38, 50, 56); transform-origin: 353.132px 171.25px;" id="eloc44gi21pba" class="animable"></path><path d="M341.15,175a1.07,1.07,0,0,1-.21-.21l-.53-.61c-.43-.52-1-1.26-1.65-2.08a14.85,14.85,0,0,1-2.1-3.15,13,13,0,0,1,2.51,2.83C340.43,173.43,341.37,174.89,341.15,175Z" style="fill: rgb(38, 50, 56); transform-origin: 338.921px 171.975px;" id="el3v69psnd2ir" class="animable"></path><path d="M368,171.86a25.74,25.74,0,0,1-3.29-4,25.65,25.65,0,0,1-2.86-4.3,26.74,26.74,0,0,1,3.28,4A26.13,26.13,0,0,1,368,171.86Z" style="fill: rgb(38, 50, 56); transform-origin: 364.925px 167.71px;" id="eltkxgwzh4tvo" class="animable"></path><path d="M379.17,166.93a28.31,28.31,0,0,1-3.5-4.28,29.68,29.68,0,0,1-3.09-4.59,29,29,0,0,1,3.5,4.28A30.59,30.59,0,0,1,379.17,166.93Z" style="fill: rgb(38, 50, 56); transform-origin: 375.875px 162.495px;" id="elea23cjdbtbf" class="animable"></path><path d="M390.72,159.62a29.36,29.36,0,0,1-3.51-4.28,29,29,0,0,1-3.08-4.6,30.27,30.27,0,0,1,3.5,4.29A30,30,0,0,1,390.72,159.62Z" style="fill: rgb(38, 50, 56); transform-origin: 387.425px 155.18px;" id="ell7dra739cin" class="animable"></path><path d="M401.09,151.87a28.7,28.7,0,0,1-3.51-4.28A29.15,29.15,0,0,1,394.5,143a29.8,29.8,0,0,1,3.5,4.28A30,30,0,0,1,401.09,151.87Z" style="fill: rgb(38, 50, 56); transform-origin: 397.795px 147.435px;" id="elmrw1bjz90i" class="animable"></path><path d="M411.46,144.12a28.7,28.7,0,0,1-3.51-4.28,29.15,29.15,0,0,1-3.08-4.59,29.8,29.8,0,0,1,3.5,4.28A30.59,30.59,0,0,1,411.46,144.12Z" style="fill: rgb(38, 50, 56); transform-origin: 408.165px 139.685px;" id="elcdhbujgntrq" class="animable"></path><path d="M420.5,134.58A28.7,28.7,0,0,1,417,130.3a28.64,28.64,0,0,1-3.08-4.59,29.8,29.8,0,0,1,3.5,4.28A30.59,30.59,0,0,1,420.5,134.58Z" style="fill: rgb(38, 50, 56); transform-origin: 417.21px 130.145px;" id="elvp0oh7hgmw" class="animable"></path><path d="M429.35,124.8a30.51,30.51,0,0,1-3.5-4.28,28.45,28.45,0,0,1-3.08-4.6,30.27,30.27,0,0,1,3.5,4.29A28.64,28.64,0,0,1,429.35,124.8Z" style="fill: rgb(38, 50, 56); transform-origin: 426.06px 120.36px;" id="els4hl9sh3nw" class="animable"></path><path d="M438,114.75a29.8,29.8,0,0,1-3.5-4.28,29.15,29.15,0,0,1-3.08-4.59,29.8,29.8,0,0,1,3.5,4.28A29.15,29.15,0,0,1,438,114.75Z" style="fill: rgb(38, 50, 56); transform-origin: 434.71px 110.315px;" id="el9skd16cvu1f" class="animable"></path><path d="M445.54,104.07A28.7,28.7,0,0,1,442,99.79,29.15,29.15,0,0,1,439,95.2a29.8,29.8,0,0,1,3.5,4.28A30.59,30.59,0,0,1,445.54,104.07Z" style="fill: rgb(38, 50, 56); transform-origin: 442.27px 99.635px;" id="el0kttclp7obz" class="animable"></path><path d="M452.13,91.73a29.14,29.14,0,0,1-3.51-4.29,28.64,28.64,0,0,1-3.08-4.59,30.51,30.51,0,0,1,3.5,4.28A29.81,29.81,0,0,1,452.13,91.73Z" style="fill: rgb(38, 50, 56); transform-origin: 448.835px 87.29px;" id="elat20i5xafq" class="animable"></path><path d="M455.89,78.42a24.2,24.2,0,0,1-3.15-3.8A22.94,22.94,0,0,1,450,70.5a24.3,24.3,0,0,1,3.14,3.81A23.1,23.1,0,0,1,455.89,78.42Z" style="fill: rgb(38, 50, 56); transform-origin: 452.945px 74.46px;" id="elg7tgtwkwd0o" class="animable"></path><path d="M457.57,65.23a23.58,23.58,0,0,1-3.15-3.8,24.68,24.68,0,0,1-2.73-4.11,22.53,22.53,0,0,1,3.15,3.8A23.79,23.79,0,0,1,457.57,65.23Z" style="fill: rgb(38, 50, 56); transform-origin: 454.63px 61.275px;" id="elu8dzplgw89m" class="animable"></path><g id="el7il5u7h2vic"><circle cx="141.56" cy="76.67" r="52.58" style="fill: #E6C0E9; transform-origin: 141.56px 76.67px; transform: rotate(-45deg);" class="animable" id="el69m84gisgl9"></circle></g><g id="eln00o6s5wo"><circle cx="141.56" cy="76.67" r="52.58" style="fill: rgb(255, 255, 255); opacity: 0.2; transform-origin: 141.56px 76.67px; transform: rotate(-45deg);" class="animable" id="elhk7hrd7sfm"></circle></g><path d="M152.87,25.32A10,10,0,0,1,154.63,28a9.7,9.7,0,0,1,1.31,2.9,10,10,0,0,1-1.76-2.64A9.7,9.7,0,0,1,152.87,25.32Z" style="fill: rgb(38, 50, 56); transform-origin: 154.405px 28.11px;" id="ela0fw8c2rrsn" class="animable"></path><path d="M161.49,28.18a9.34,9.34,0,0,1,1.7,2.53,9,9,0,0,1,1.24,2.78,9.34,9.34,0,0,1-1.7-2.53A8.89,8.89,0,0,1,161.49,28.18Z" style="fill: rgb(38, 50, 56); transform-origin: 162.96px 30.835px;" id="elxesbjysqqcd" class="animable"></path><path d="M169.37,32.07a8.84,8.84,0,0,1,1.7,2.53,8.89,8.89,0,0,1,1.25,2.78,8.84,8.84,0,0,1-1.7-2.53A9.07,9.07,0,0,1,169.37,32.07Z" style="fill: rgb(38, 50, 56); transform-origin: 170.845px 34.725px;" id="elnoz2f2llqb" class="animable"></path><path d="M143.74,24.1a10,10,0,0,1,1.76,2.64,9.7,9.7,0,0,1,1.31,2.9A10,10,0,0,1,145.05,27,9.6,9.6,0,0,1,143.74,24.1Z" style="fill: rgb(38, 50, 56); transform-origin: 145.275px 26.87px;" id="el8923489o87t" class="animable"></path><path d="M135.25,24.47A9.66,9.66,0,0,1,137,27.11a10,10,0,0,1,1.31,2.9,9.66,9.66,0,0,1-1.77-2.64A10,10,0,0,1,135.25,24.47Z" style="fill: rgb(38, 50, 56); transform-origin: 136.78px 27.24px;" id="el3ff0pl6zxbi" class="animable"></path><path d="M126.91,26.32a9.89,9.89,0,0,1,1.76,2.58,9.41,9.41,0,0,1,1.3,2.83,9.72,9.72,0,0,1-1.76-2.57A9.52,9.52,0,0,1,126.91,26.32Z" style="fill: rgb(38, 50, 56); transform-origin: 128.44px 29.025px;" id="eldi7zkr61kzw" class="animable"></path><path d="M119.24,28.9A9.66,9.66,0,0,1,121,31.54a10,10,0,0,1,1.31,2.9,9.81,9.81,0,0,1-1.77-2.65A10,10,0,0,1,119.24,28.9Z" style="fill: rgb(38, 50, 56); transform-origin: 120.775px 31.67px;" id="el0kygjvzdag5p" class="animable"></path><path d="M111.91,33.09a9.51,9.51,0,0,1,1.76,2.64,9.7,9.7,0,0,1,1.31,2.9A10.21,10.21,0,0,1,113.22,36,9.83,9.83,0,0,1,111.91,33.09Z" style="fill: rgb(38, 50, 56); transform-origin: 113.445px 35.86px;" id="elohpmimr7y7" class="animable"></path><path d="M105.52,38.24a10.21,10.21,0,0,1,1.76,2.65,9.71,9.71,0,0,1,1.31,2.89,10,10,0,0,1-1.76-2.64A9.7,9.7,0,0,1,105.52,38.24Z" style="fill: rgb(38, 50, 56); transform-origin: 107.055px 41.01px;" id="elzl60sbgshmm" class="animable"></path><path d="M100.46,43.66a10.21,10.21,0,0,1,1.76,2.65,9.71,9.71,0,0,1,1.31,2.89,10,10,0,0,1-1.76-2.64A9.7,9.7,0,0,1,100.46,43.66Z" style="fill: rgb(38, 50, 56); transform-origin: 101.995px 46.43px;" id="eldch0xjjbv9r" class="animable"></path><path d="M96.16,50.57A10.8,10.8,0,0,1,98,53.31a10.37,10.37,0,0,1,1.36,3,10.8,10.8,0,0,1-1.82-2.74A10.37,10.37,0,0,1,96.16,50.57Z" style="fill: rgb(38, 50, 56); transform-origin: 97.76px 53.44px;" id="el5eh165xn9k5" class="animable"></path><path d="M92.52,58a10.62,10.62,0,0,1,1.82,2.73,11.08,11.08,0,0,1,1.36,3A10.34,10.34,0,0,1,93.88,61,10.25,10.25,0,0,1,92.52,58Z" style="fill: rgb(38, 50, 56); transform-origin: 94.11px 60.865px;" id="elkwzqnljki1s" class="animable"></path><path d="M90.07,66A14.3,14.3,0,0,1,92,68.62a9.11,9.11,0,0,1,1.6,2.88,12.68,12.68,0,0,1-2-2.59A8,8,0,0,1,90.07,66Z" style="fill: rgb(38, 50, 56); transform-origin: 91.835px 68.75px;" id="ell1ckvbdcu9e" class="animable"></path><path d="M89,74.88A12.86,12.86,0,0,1,91,78a13.3,13.3,0,0,1,1.55,3.32,12.66,12.66,0,0,1-2-3.07A13.45,13.45,0,0,1,89,74.88Z" style="fill: rgb(38, 50, 56); transform-origin: 90.775px 78.1px;" id="el4nicofxk3lv" class="animable"></path><path d="M90,86.85a15,15,0,0,1,2.17,3.26,14.67,14.67,0,0,1,1.73,3.52,15.28,15.28,0,0,1-2.18-3.26A14.85,14.85,0,0,1,90,86.85Z" style="fill: rgb(38, 50, 56); transform-origin: 91.95px 90.24px;" id="el1mmi1jyl83l" class="animable"></path><g id="el86fy0b4em5q"><circle cx="145.18" cy="82.09" r="52.58" style="fill: #E6C0E9; transform-origin: 145.18px 82.09px; transform: rotate(-15.67deg);" class="animable" id="eldj0mbop35s"></circle></g><g id="ele42vcat718h"><ellipse cx="144.89" cy="81.56" rx="40.06" ry="39.07" style="fill: rgb(255, 255, 255); opacity: 0.2; transform-origin: 144.89px 81.56px; transform: rotate(-4.89deg);" class="animable" id="elgnyto7dgzso"></ellipse></g><path d="M148.21,120.32A40,40,0,0,1,105,85c0,.38,0,.76.07,1.14a40,40,0,1,0,79.8-6.83c0-.38-.08-.76-.12-1.13A40,40,0,0,1,148.21,120.32Z" style="fill: rgb(250, 250, 250); transform-origin: 145.008px 100.475px;" id="elg7yjfbadt5g" class="animable"></path><g id="ell4saka4yj8p"><path d="M141.58,42.8a40,40,0,0,1,43.19,35.35c0-.38,0-.76-.07-1.14a40,40,0,1,0-79.8,6.83c0,.38.08.76.12,1.13A40,40,0,0,1,141.58,42.8Z" style="opacity: 0.3; transform-origin: 144.762px 62.6746px;" class="animable" id="eld5r4yhqask"></path></g><path d="M163.33,88.44c-.48-5.6-3.47-9-7.53-10.15,2.68-2,4.29-5.45,3.91-9.88-.47-5.52-3.88-9.16-9.8-10l-.58-6.8-6.28.54.54,6.32-3.56.3-.55-6.32L133.2,53l.55,6.32-5.73.49-4,.34.54,6.28,4-.34,2.62,30.54-4.41.38.54,6.28,4.4-.38h0l5.73-.49.63,7.36,6.28-.54-.63-7.35,3.56-.31.63,7.35,6.28-.53-.65-7.6C160.54,99.22,163.87,94.82,163.33,88.44Zm-26.81-23L145,64.7c4.71-.4,7.56,1.34,7.9,5.34s-2.17,6.14-6.89,6.54l-9.64.83-1-11.88ZM149,95.13,138.72,96l-.73.06-1.06-12.44,11-.94c5.14-.44,8.08,1.23,8.45,5.54S154.14,94.69,149,95.13Z" style="fill: #E6C0E9; transform-origin: 143.703px 80.695px;" id="el088pmjn128q9" class="animable"></path><g id="elbo9entl21tl"><path d="M163.33,88.44c-.48-5.6-3.47-9-7.53-10.15,2.68-2,4.29-5.45,3.91-9.88-.47-5.52-3.88-9.16-9.8-10l-.58-6.8-6.28.54.54,6.32-3.56.3-.55-6.32L133.2,53l.55,6.32-5.73.49-4,.34.54,6.28,4-.34,2.62,30.54-4.41.38.54,6.28,4.4-.38h0l5.73-.49.63,7.36,6.28-.54-.63-7.35,3.56-.31.63,7.35,6.28-.53-.65-7.6C160.54,99.22,163.87,94.82,163.33,88.44Zm-26.81-23L145,64.7c4.71-.4,7.56,1.34,7.9,5.34s-2.17,6.14-6.89,6.54l-9.64.83-1-11.88ZM149,95.13,138.72,96l-.73.06-1.06-12.44,11-.94c5.14-.44,8.08,1.23,8.45,5.54S154.14,94.69,149,95.13Z" style="opacity: 0.3; transform-origin: 143.703px 80.695px;" class="animable" id="el4rb0m0864sd"></path></g><path d="M163.62,91.4c-.48-5.61-3.47-9-7.53-10.15,2.68-2,4.29-5.45,3.91-9.89-.47-5.51-3.88-9.15-9.8-10l-.58-6.81-6.28.54.54,6.32-3.56.31-.54-6.32-6.29.54L134,62.3l-5.73.49-4,.34.54,6.28,4-.34,2.62,30.54-4.41.38.54,6.28,4.4-.38h0l5.72-.49.63,7.35,6.28-.54-.63-7.35,3.56-.3.63,7.35,6.28-.54-.65-7.59C160.83,102.18,164.16,97.78,163.62,91.4Zm-26.81-23,8.51-.73c4.72-.41,7.56,1.33,7.9,5.34s-2.17,6.14-6.89,6.54l-9.64.83-1-11.89Zm12.48,29.69L139,99l-.73.06-1.06-12.43,11-1c5.14-.44,8.08,1.23,8.45,5.55S154.43,97.64,149.29,98.08Z" style="fill: #E6C0E9; transform-origin: 143.973px 83.65px;" id="ell5q0zhpqn1" class="animable"></path><path d="M131.1,99.19c-.43,0-1.35-6.63-2.06-14.9s-.93-15-.5-15,1.35,6.64,2.06,14.91S131.53,99.16,131.1,99.19Z" style="fill: rgb(250, 250, 250); transform-origin: 129.82px 84.24px;" id="elrr1rqlb0c0c" class="animable"></path><path d="M149.52,79.32c0,.43-2.65,1-6,1.3s-6.09.17-6.13-.26,2.65-1,6-1.29S149.48,78.89,149.52,79.32Z" style="fill: rgb(250, 250, 250); transform-origin: 143.455px 79.8456px;" id="elfgt4ybc5ap" class="animable"></path><path d="M151.35,98c0,.43-2.65,1-6,1.3s-6.09.17-6.13-.26,2.65-1,6-1.3S151.31,97.52,151.35,98Z" style="fill: rgb(250, 250, 250); transform-origin: 145.285px 98.5133px;" id="elbeo3hcuqg8f" class="animable"></path><g id="elk8hqljifawk"><circle cx="265.65" cy="335.16" r="87.05" style="fill: #E6C0E9; transform-origin: 265.65px 335.16px; transform: rotate(-45deg);" class="animable" id="ela8q1tc2vh0p"></circle></g><g id="elbidjf0lgs5d"><circle cx="265.65" cy="335.16" r="87.05" style="opacity: 0.4; transform-origin: 265.65px 335.16px; transform: rotate(-45deg);" class="animable" id="el8hkqjah07fh"></circle></g><g id="el3zhypi4twh"><circle cx="260.35" cy="326.01" r="87.05" style="fill: #E6C0E9; transform-origin: 260.35px 326.01px; transform: rotate(-45deg);" class="animable" id="el358jzzw2ak4"></circle></g><g id="elztkeqinb2g"><ellipse cx="259.88" cy="325.14" rx="66.33" ry="64.68" style="fill: rgb(255, 255, 255); opacity: 0.2; transform-origin: 259.88px 325.14px; transform: rotate(-5.55deg);" class="animable" id="elvjv4a78mmy"></ellipse></g><path d="M266.11,389.25a66.28,66.28,0,0,1-72.17-57.7c0,.63.07,1.26.13,1.89a66.3,66.3,0,0,0,132-12.83c-.07-.63-.16-1.25-.23-1.88A66.29,66.29,0,0,1,266.11,389.25Z" style="fill: rgb(250, 250, 250); transform-origin: 260.159px 356.017px;" id="elavfeaqj23ff" class="animable"></path><g id="elkf60n3yw26"><path d="M253.64,261a66.3,66.3,0,0,1,72.18,57.7c-.05-.63-.08-1.25-.14-1.89a66.3,66.3,0,0,0-132,12.83c.07.64.16,1.26.24,1.88A66.29,66.29,0,0,1,253.64,261Z" style="opacity: 0.3; transform-origin: 259.594px 294.217px;" class="animable" id="elrc823x4oy4r"></path></g><path d="M296.1,340.58c-.9-9.27-5.9-14.84-12.65-16.66,4.4-3.41,7-9.11,6.28-16.44-.88-9.11-6.59-15.08-16.4-16.31l-1.1-11.25-10.38,1,1,10.46L257,292l-1-10.46-10.39,1,1,10.46-9.46.92-6.59.64,1,10.39,6.59-.65L243,354.78l-7.29.71,1,10.39,7.29-.71h0l9.46-.92,1.18,12.16,10.39-1-1.18-12.16,5.89-.57L271,374.83l10.39-1-1.22-12.56C291.7,358.48,297.13,351.14,296.1,340.58ZM251.29,303l14.07-1.36c7.8-.76,12.54,2.07,13.18,8.69s-3.47,10.2-11.27,11l-16,1.55-1.91-19.65Zm21.23,48.93-17,1.65-1.2.12-2-20.57,18.21-1.77c8.5-.83,13.4,1.88,14.09,9S281,351.09,272.52,351.92Z" style="fill: #E6C0E9; transform-origin: 263.392px 328.165px;" id="elln372jdrlq" class="animable"></path><g id="el9sz87w6b30j"><path d="M296.1,340.58c-.9-9.27-5.9-14.84-12.65-16.66,4.4-3.41,7-9.11,6.28-16.44-.88-9.11-6.59-15.08-16.4-16.31l-1.1-11.25-10.38,1,1,10.46L257,292l-1-10.46-10.39,1,1,10.46-9.46.92-6.59.64,1,10.39,6.59-.65L243,354.78l-7.29.71,1,10.39,7.29-.71h0l9.46-.92,1.18,12.16,10.39-1-1.18-12.16,5.89-.57L271,374.83l10.39-1-1.22-12.56C291.7,358.48,297.13,351.14,296.1,340.58ZM251.29,303l14.07-1.36c7.8-.76,12.54,2.07,13.18,8.69s-3.47,10.2-11.27,11l-16,1.55-1.91-19.65Zm21.23,48.93-17,1.65-1.2.12-2-20.57,18.21-1.77c8.5-.83,13.4,1.88,14.09,9S281,351.09,272.52,351.92Z" style="opacity: 0.3; transform-origin: 263.392px 328.165px;" class="animable" id="elsahsqun4i98"></path></g><path d="M291.06,341.07c-.9-9.27-5.91-14.84-12.65-16.66,4.39-3.41,7-9.11,6.28-16.44-.89-9.11-6.59-15.08-16.41-16.31l-1.09-11.25-10.39,1,1,10.46-5.9.57-1-10.46-10.38,1,1,10.46-9.46.92-6.59.64,1,10.39,6.59-.64L238,355.28l-7.28.7,1,10.39,7.28-.71h0l9.46-.92,1.19,12.16,10.38-1-1.18-12.16,5.9-.57,1.18,12.16,10.39-1-1.23-12.56C286.65,359,292.08,351.63,291.06,341.07Zm-44.81-37.58,14.06-1.37c7.8-.76,12.54,2.07,13.19,8.69s-3.47,10.2-11.28,11l-16,1.55-1.92-19.65Zm21.22,48.92-17,1.65-1.2.12-2-20.57,18.22-1.77c8.49-.83,13.4,1.88,14.09,9S276,351.58,267.47,352.41Z" style="fill: #E6C0E9; transform-origin: 258.326px 328.655px;" id="elw96gz29ra8l" class="animable"></path><path d="M339,288.55a3,3,0,0,1-.39-.59l-1-1.81c-.42-.81-1-1.79-1.66-2.92s-1.44-2.47-2.42-3.89A87.39,87.39,0,0,0,313.88,258a88.68,88.68,0,0,0-17.15-10.39,87.6,87.6,0,0,0-22-6.7,80.81,80.81,0,0,0-12.39-1.16,82.45,82.45,0,0,0-13,.7,87,87,0,0,0-13.15,2.77,86.55,86.55,0,0,0-24.91,11.88,84.94,84.94,0,0,0-10.43,8.48,86.71,86.71,0,0,0-15.6,20,87.73,87.73,0,0,0-8.62,21.3A89,89,0,0,0,174,324.73a85.1,85.1,0,0,0,1.22,16.53,87,87,0,0,0,3,12.18c.49,1.65,1,3.08,1.5,4.33s.87,2.29,1.23,3.13l.77,1.92a2.36,2.36,0,0,1,.21.68,3.09,3.09,0,0,1-.36-.61l-.91-1.86c-.41-.82-.89-1.85-1.37-3.09s-1.11-2.66-1.64-4.31a81.25,81.25,0,0,1-3.27-12.22,84.54,84.54,0,0,1-1.47-16.7,87,87,0,0,1,11.19-41.86,87.59,87.59,0,0,1,15.8-20.38,88.06,88.06,0,0,1,10.61-8.65,87.52,87.52,0,0,1,25.35-12.09,87.55,87.55,0,0,1,13.4-2.8,84,84,0,0,1,13.18-.67,82.14,82.14,0,0,1,12.6,1.23,86.7,86.7,0,0,1,39.56,17.64,83.88,83.88,0,0,1,12.06,11.65A81.84,81.84,0,0,1,334.06,279c.95,1.45,1.67,2.82,2.31,4s1.16,2.17,1.54,3l.87,1.89C339,288.32,339.06,288.54,339,288.55Z" style="fill: rgb(250, 250, 250); transform-origin: 255.963px 300.864px;" id="elbau4h0y3wvf" class="animable"></path><path d="M250.9,282c0,.27-4,.9-10.32,1.66l.58-.71c.36,3,.75,6.58,1.15,10.44l.07.77-.77.08-2.8.28c-4.91.48-9.48.87-13.27,1.15l.59-.7c.47,6.28.63,10.42.36,10.45s-.9-4.07-1.65-10.33l-.08-.63.66-.07c3.77-.46,8.33-.95,13.24-1.43l2.8-.26-.7.84c-.36-3.86-.66-7.45-.89-10.46l0-.66.62-.05C246.76,281.89,250.88,281.73,250.9,282Z" style="fill: rgb(250, 250, 250); transform-origin: 237.83px 293.645px;" id="elecf98i2o0h9" class="animable"></path><path d="M269.39,280.38c0,.43-2.74,1.05-6.21,1.39s-6.31.26-6.35-.17,2.73-1.05,6.2-1.38S269.35,280,269.39,280.38Z" style="fill: rgb(250, 250, 250); transform-origin: 263.11px 281.003px;" id="el77pkfgyhqs5" class="animable"></path><path d="M237.38,354.6c-.43,0-1.86-11-3.18-24.69s-2.06-24.79-1.63-24.83,1.85,11,3.18,24.68S237.81,354.56,237.38,354.6Z" style="fill: rgb(250, 250, 250); transform-origin: 234.975px 329.84px;" id="elte189gv6loj" class="animable"></path><path d="M267.49,321.35c0,.43-4.41,1.22-9.95,1.75s-10.05.63-10.09.2,4.41-1.21,9.94-1.75S267.45,320.92,267.49,321.35Z" style="fill: rgb(250, 250, 250); transform-origin: 257.47px 322.323px;" id="eloqyf71fcnt" class="animable"></path><path d="M270.87,352.16c.05.43-4.41,1.21-9.94,1.75s-10.05.62-10.1.2,4.41-1.22,9.95-1.76S270.83,351.73,270.87,352.16Z" style="fill: rgb(250, 250, 250); transform-origin: 260.85px 353.131px;" id="elviybin6jynj" class="animable"></path><path d="M247.91,420.39a52.68,52.68,0,0,1-5.2-9.11,53.44,53.44,0,0,1,5.2,9.11Z" style="fill: rgb(38, 50, 56); transform-origin: 245.31px 415.835px;" id="ellrezpimewwt" class="animable"></path><path d="M233.58,415.82a24.57,24.57,0,0,1-2.72-4.24,24.26,24.26,0,0,1-2.26-4.5,48,48,0,0,1,5,8.74Z" style="fill: rgb(38, 50, 56); transform-origin: 231.1px 411.45px;" id="elt3bj8lno1ur" class="animable"></path><path d="M220.45,409.53a24.9,24.9,0,0,1-2.71-4.24,24.38,24.38,0,0,1-2.27-4.5,24.57,24.57,0,0,1,2.72,4.24A24.26,24.26,0,0,1,220.45,409.53Z" style="fill: rgb(38, 50, 56); transform-origin: 217.96px 405.16px;" id="elxqervuraf1" class="animable"></path><path d="M263,422.24a26.77,26.77,0,0,1-2.82-4.43,26,26,0,0,1-2.37-4.68,26.4,26.4,0,0,1,2.82,4.42A25.84,25.84,0,0,1,263,422.24Z" style="fill: rgb(38, 50, 56); transform-origin: 260.405px 417.685px;" id="elq5nsz2evjym" class="animable"></path><path d="M277.08,421.46a53.44,53.44,0,0,1-5.2-9.11,52.68,52.68,0,0,1,5.2,9.11Z" style="fill: rgb(38, 50, 56); transform-origin: 274.48px 416.905px;" id="ell412icwd4fc" class="animable"></path><path d="M290.88,418.45a26.57,26.57,0,0,1-2.83-4.42,27.53,27.53,0,0,1-2.37-4.69,26.41,26.41,0,0,1,2.83,4.43A27.25,27.25,0,0,1,290.88,418.45Z" style="fill: rgb(38, 50, 56); transform-origin: 288.28px 413.895px;" id="el4gxc2jjd7kv" class="animable"></path><path d="M303.5,413.83a26.41,26.41,0,0,1-2.83-4.43,27.66,27.66,0,0,1-2.37-4.68,26,26,0,0,1,2.83,4.42A27.53,27.53,0,0,1,303.5,413.83Z" style="fill: rgb(38, 50, 56); transform-origin: 300.9px 409.275px;" id="eli688wu4vwz" class="animable"></path><path d="M315.56,406.76a26.94,26.94,0,0,1-2.83-4.43,27.53,27.53,0,0,1-2.37-4.69,26.41,26.41,0,0,1,2.83,4.43A27.12,27.12,0,0,1,315.56,406.76Z" style="fill: rgb(38, 50, 56); transform-origin: 312.96px 402.2px;" id="elxq1lhp382tg" class="animable"></path><path d="M326,398.1a26.94,26.94,0,0,1-2.83-4.43,27.53,27.53,0,0,1-2.37-4.69,26.41,26.41,0,0,1,2.83,4.43A27.12,27.12,0,0,1,326,398.1Z" style="fill: rgb(38, 50, 56); transform-origin: 323.4px 393.54px;" id="elaxvwkyl5nx" class="animable"></path><path d="M334.31,389a27.31,27.31,0,0,1-2.82-4.43,25.84,25.84,0,0,1-2.37-4.69,26.77,26.77,0,0,1,2.82,4.43A25.49,25.49,0,0,1,334.31,389Z" style="fill: rgb(38, 50, 56); transform-origin: 331.715px 384.44px;" id="elkg6hqhpvetp" class="animable"></path><path d="M341.85,378.48a54,54,0,0,1-5.2-9.12,26.94,26.94,0,0,1,2.83,4.43A26.66,26.66,0,0,1,341.85,378.48Z" style="fill: rgb(38, 50, 56); transform-origin: 339.25px 373.92px;" id="elo3s7ra2iqel" class="animable"></path><path d="M348,366.54a26.41,26.41,0,0,1-2.83-4.43,27.12,27.12,0,0,1-2.37-4.69,26.94,26.94,0,0,1,2.83,4.43A27.53,27.53,0,0,1,348,366.54Z" style="fill: rgb(38, 50, 56); transform-origin: 345.4px 361.98px;" id="el77yztddr1o7" class="animable"></path><path d="M351.9,353.14a26.41,26.41,0,0,1-2.83-4.43A27.12,27.12,0,0,1,346.7,344a26.94,26.94,0,0,1,2.83,4.43A27.53,27.53,0,0,1,351.9,353.14Z" style="fill: rgb(38, 50, 56); transform-origin: 349.3px 348.57px;" id="elowuqdzncvg" class="animable"></path><path d="M353.71,338.92a39.05,39.05,0,0,1-3.39-5.41,38.52,38.52,0,0,1-2.93-5.67,79.73,79.73,0,0,1,6.32,11.08Z" style="fill: rgb(38, 50, 56); transform-origin: 350.55px 333.38px;" id="el7pawvsgbyxq" class="animable"></path><path d="M351.75,318.89a39.61,39.61,0,0,1-3.38-5.41,40.05,40.05,0,0,1-2.94-5.66,38.32,38.32,0,0,1,3.39,5.41A40,40,0,0,1,351.75,318.89Z" style="fill: rgb(38, 50, 56); transform-origin: 348.59px 313.355px;" id="elmo0j8095bt" class="animable"></path><g id="elt6l3c93rxcl"><g style="opacity: 0.2; transform-origin: 260.32px 325.945px;" class="animable" id="elnhiau69sifp"><path d="M216.86,341.14a1.24,1.24,0,0,0,0,1.14,1.16,1.16,0,0,0,2.16-.22,1.24,1.24,0,0,0-.22-1.11c-.47-.56-1.05-.5-1-.6C217.79,340.44,217.21,340.5,216.86,341.14Z" style="fill: none; transform-origin: 217.894px 341.637px;" id="elic6xlv3112" class="animable"></path><path d="M259.3,311.46a1.23,1.23,0,0,0,0,1.14,1.18,1.18,0,0,0,1.15.63,1.22,1.22,0,0,0,1-.84,1.39,1.39,0,0,0,0-.4h0a1.18,1.18,0,0,0-.26-.71c-.46-.56-1.05-.5-1-.6C260.23,310.76,259.64,310.82,259.3,311.46Z" style="fill: none; transform-origin: 260.312px 311.957px;" id="elncxwt9shsxj" class="animable"></path><path d="M209.44,382a1.24,1.24,0,0,0,0,1.14,1.17,1.17,0,0,0,2.16-.21,1.23,1.23,0,0,0-.22-1.12c-.47-.56-1-.5-1-.6C210.37,381.34,209.79,381.4,209.44,382Z" style="fill: none; transform-origin: 210.476px 382.49px;" id="el8p2t96rlrcb" class="animable"></path><path d="M311,313.47a1.26,1.26,0,0,0,0,1.14,1.17,1.17,0,0,0,2.17-.21,1.23,1.23,0,0,0-.23-1.12c-.46-.56-1-.5-1-.6C312,312.77,311.39,312.83,311,313.47Z" style="fill: none; transform-origin: 312.041px 313.966px;" id="el7a4t3krwhu" class="animable"></path><path d="M222.86,275.93a1.23,1.23,0,0,0,0,1.14,1.17,1.17,0,0,0,2.17-.21,1.25,1.25,0,0,0-.23-1.12,1.51,1.51,0,0,0-.8-.51v.19a3.48,3.48,0,0,1,0,.77,3.39,3.39,0,0,1-.13-.76l0-.24c-.06,0-.1,0-.09-.05S223.21,275.29,222.86,275.93Z" style="fill: none; transform-origin: 223.898px 276.422px;" id="elryl5wxsjaab" class="animable"></path><path d="M315,297.45a1.24,1.24,0,0,0,0,1.14,1.17,1.17,0,0,0,2.16-.21,1.23,1.23,0,0,0-.22-1.12c-.47-.56-1.05-.5-1-.6C315.9,296.76,315.32,296.81,315,297.45Z" style="fill: none; transform-origin: 316.036px 297.94px;" id="el6qca7hirdt9" class="animable"></path><path d="M256.52,317.73a1.23,1.23,0,0,0,0,1.14,1.17,1.17,0,0,0,2.17-.21,1.25,1.25,0,0,0-.13-1h0c-.24,0-.36,0-.36,0l.34-.07a.35.35,0,0,0-.05-.08c-.46-.56-1.05-.5-1-.6C257.45,317,256.87,317.09,256.52,317.73Z" style="fill: none; transform-origin: 257.56px 318.211px;" id="el3w5q2avudc4" class="animable"></path><path d="M245.61,337.46a1.24,1.24,0,0,0,0,1.14,1.16,1.16,0,0,0,2.16-.21.73.73,0,0,0,0-.25h-.08l.09,0a1.23,1.23,0,0,0-.27-.82c-.47-.56-1.05-.5-1-.6C246.54,336.77,246,336.83,245.61,337.46Z" style="fill: none; transform-origin: 246.626px 337.983px;" id="el5negqnhwl3y" class="animable"></path><path d="M204.16,297.57l70.67-6.93,10.47,10.93.06.07h.1l21.42-2.22,5.75-.62,1.48-.18.28,0a1.12,1.12,0,0,0,.08.26,1.7,1.7,0,0,0,3.2-.31,1.65,1.65,0,0,0-.45-1.55,1.46,1.46,0,0,0-1-.41c-.25,0-.37.07-.37.1s.57,0,1,.6a1.23,1.23,0,0,1,.22,1.12,1.17,1.17,0,0,1-2.16.21,1.24,1.24,0,0,1,0-1.14c.35-.64.93-.69.9-.79s-.13-.07-.38,0a1.45,1.45,0,0,0-.88.6,1.63,1.63,0,0,0-.23,1.31l-.28,0-1.48.12-5.76.52-21.34,2-10.43-11-.08-.09h-.11L204.1,297l-26.7,2.61c-.07.2-.13.4-.2.6Z" style="fill: rgb(255, 255, 255); transform-origin: 247.456px 295.905px;" id="els4o28qhw2fn" class="animable"></path><path d="M315.07,280.94l11.16,11.39.08.08h.12L340.06,291c0-.1-.09-.2-.13-.31l-13.42,1.21-11.12-11.45-.1-.1h-.14l-8.89.86-32.9,3.29-10,1.06-2.7.32a5.69,5.69,0,0,0-.94.15,5.67,5.67,0,0,0,.95,0l2.72-.21,10-.87,32.92-3.11Z" style="fill: rgb(255, 255, 255); transform-origin: 299.89px 286.38px;" id="el2ba6boenf2n" class="animable"></path><path d="M243.72,320.33l6.92,2.88.05,0h0l11.65-1.07,3.09-.31.21,0a.87.87,0,0,0,.94.75.87.87,0,0,0-.17-1.74.88.88,0,0,0-.78.9h-.21l-3.1.21-11.61.9-6.91-2.94-.05,0h-.06l-49.63,4.74-17.39,1.7-3.4-1.65c0,.21,0,.42,0,.63l3.23,1.58.07,0h.09l17.46-1.69Z" style="fill: rgb(255, 255, 255); transform-origin: 220.32px 323.41px;" id="el61izyexrx2g" class="animable"></path><path d="M250.08,315.9l-6.53-2-.06,0h-.06l-4.18.43c-.23-2.68-.45-5.24-.66-7.66l0-.26-.26,0-19.15,2.12-5.35.63-.59.08a.86.86,0,0,0-.92-.71.87.87,0,0,0-.78.95.86.86,0,0,0,1.72-.11l.59-.05,5.37-.49L238.1,307q.28,3.65.61,7.68l0,.28.29,0,4.41-.44,6.53,2,.06,0h.06l8.13-.79,36.64-3.65,6.79,3.73.05,0h.05l6.88-.75,1.82-.22h.09v0a1.7,1.7,0,0,0,3.21-.32,1.63,1.63,0,0,0-.45-1.54,1.45,1.45,0,0,0-1-.42c-.25,0-.37.07-.37.11s.57,0,1,.6a1.23,1.23,0,0,1,.23,1.12,1.17,1.17,0,0,1-2.17.21,1.26,1.26,0,0,1,0-1.14c.35-.64.93-.7.9-.79s-.14-.08-.38,0a1.43,1.43,0,0,0-.88.59,1.64,1.64,0,0,0-.18,1.5h-.07l-1.83.13-6.84.59L295,311.65l-.06,0h-.07l-36.72,3.49Z" style="fill: rgb(255, 255, 255); transform-origin: 262.649px 311.465px;" id="elep35g2h6w36" class="animable"></path><path d="M211.69,381.56a1.44,1.44,0,0,0-1-.42c-.25,0-.37.07-.37.11s.57,0,1,.6a1.23,1.23,0,0,1,.22,1.12,1.17,1.17,0,0,1-2.16.21,1.24,1.24,0,0,1,0-1.14c.35-.64.93-.7.9-.79s-.14-.08-.38,0a1.43,1.43,0,0,0-.88.59,1.66,1.66,0,0,0-.14,1.61,1.7,1.7,0,0,0,1.71,1,1.72,1.72,0,0,0,1.49-1.31s0,0,0-.06h.26l1.29-.09,4.88-.39,17.1-1.55.15,0,.07-.14,4.92-10.43,0-.07v-.09c-.15-1.58-.31-3.2-.47-4.84-.7-7.05-1.36-13.68-1.92-19.35v-.13l-.11-.06-8.18-5.37-.07,0H230l-8,.87-2.15.26-.29,0a1.6,1.6,0,0,0-.47-1,1.45,1.45,0,0,0-1-.42c-.25,0-.37.07-.37.11s.57,0,1,.6a1.24,1.24,0,0,1,.22,1.11,1.16,1.16,0,0,1-2.16.22,1.24,1.24,0,0,1,0-1.14c.35-.64.93-.7.9-.79s-.14-.08-.38,0a1.39,1.39,0,0,0-.88.59,1.61,1.61,0,0,0-.15,1.6,1.7,1.7,0,0,0,3.21-.31,1.5,1.5,0,0,0,0-.47h.28l2.17-.16,7.94-.68c2.29,1.54,5,3.36,8,5.35.54,5.65,1.16,12.24,1.83,19.24.16,1.61.31,3.2.47,4.76l-4.78,10.23-16.93,1.76-4.86.55-1.28.17-.25,0A1.62,1.62,0,0,0,211.69,381.56Z" style="fill: rgb(255, 255, 255); transform-origin: 224.742px 362.369px;" id="elv9d8i546l3s" class="animable"></path><path d="M303,356.49a.86.86,0,0,0,.77-.89h0l2.53-.19,9.36-.81h.06l.05,0,9.8-8.09,19.81-1.9c0-.21.09-.41.14-.62l-20.09,2h-.08l-.07.06-9.73,8.2-9.27,1-2.53.31h0a.86.86,0,0,0-1.71.22A.86.86,0,0,0,303,356.49Z" style="fill: rgb(255, 255, 255); transform-origin: 323.777px 350.244px;" id="elukb48mt073d" class="animable"></path><path d="M257.81,412.69c0-.3,0-.69-.07-1.15-.1-1.35-.25-3.13-.41-5.29-.38-4.45-.95-10.61-1.61-17.4-.21-2.12-.41-4.19-.61-6.15v-.12l-.09-.07-10-8.13c-.19-1.62-.35-3-.47-4-.09-.68-.16-1.13-.2-1.33a.72.72,0,0,0,.33,0,.87.87,0,1,0-.95-.78.85.85,0,0,0,.56.72c0,.19,0,.65.06,1.37.08,1,.18,2.41.31,4.08v.07l.06.06,9.88,8.25c.18,1.93.37,3.95.57,6,.66,6.79,1.29,12.94,1.78,17.39.25,2.14.45,3.91.61,5.26l.15,1.15a.86.86,0,0,0-.52.3l1.37,0A.88.88,0,0,0,257.81,412.69Z" style="fill: rgb(255, 255, 255); transform-origin: 251.143px 390.117px;" id="elbrjc9zwhaxi" class="animable"></path><path d="M217.38,284.33a.86.86,0,0,0,1,.78.87.87,0,1,0-1-.78Z" style="fill: rgb(255, 255, 255); transform-origin: 218.246px 284.251px;" id="elmrx0o3ye3hl" class="animable"></path><path d="M286.47,363.35l1.73-.18.3,0a1,1,0,0,0,0,.17.86.86,0,0,0,.95.78.88.88,0,0,0,.78-.95.86.86,0,0,0-1.71-.08h-.32l-1.74.08-6.49.41-21.75,1.55q-.45-3.64-.92-7.5c-.09-.71-.18-1.42-.26-2.08l7.8-8.57.09-.09v-.13c-.29-2.79-.56-5.43-.8-7.81v-.1l-.08-.07-2.6-2.12-.08-.06h-.09l-9.88,1.06-2.7.33-.33,0a1.56,1.56,0,0,0-.48-1,1.44,1.44,0,0,0-1-.42c-.25,0-.37.07-.37.11s.57,0,1,.6a1.23,1.23,0,0,1,.27.82l-.09,0h.08a.73.73,0,0,1,0,.25,1.16,1.16,0,0,1-2.16.21,1.24,1.24,0,0,1,0-1.14c.35-.63.93-.69.9-.78s-.13-.08-.38,0a1.39,1.39,0,0,0-.88.59,1.64,1.64,0,0,0-.14,1.6,1.69,1.69,0,0,0,3.2-.31,2,2,0,0,0,0-.41l.33,0,2.71-.2,9.81-.86,2.43,2c.21,2.32.45,4.88.7,7.59l-7.84,8.56-.09.1,0,.14c.08.7.18,1.45.27,2.21l1,7.78,0,.29.28,0,22-1.78Z" style="fill: rgb(255, 255, 255); transform-origin: 267.604px 351.145px;" id="elnc49oz1fln9" class="animable"></path><path d="M273.47,360.59c-.47-5.68-1-11.66-1.47-17.73-.07-.84-.14-1.67-.2-2.51v-.12l-.1-.08-8.37-7.21-.1-.08h-.13l-51.74,5.06h-.07l-.05,0-31.42,21.09.15.38,31.51-21,51.55-5,8.19,7c.06.79.13,1.58.19,2.38.52,6.18,1,12.26,1.5,18l0,.3.3,0,69.15-6,.16-.45Z" style="fill: rgb(255, 255, 255); transform-origin: 261.17px 346.965px;" id="elrql00b63l4r" class="animable"></path><path d="M272.23,328.46c.19,1.71.47,4.13.81,7.16v.07l.07.05,14.72,11.41.08.06H288l19.54-1.87L341.34,342l4.7-.5.06-.35-4.8.42-33.8,3.2-19.42,1.91-14.7-11.14c-.4-3-.72-5.37-1-7.07-.11-.78-.21-1.41-.28-1.89a2.75,2.75,0,0,0-.13-.64,3.53,3.53,0,0,0,0,.65C272.09,327,272.15,327.66,272.23,328.46Z" style="fill: rgb(255, 255, 255); transform-origin: 309.027px 336.575px;" id="elvvkj4yk4z9f" class="animable"></path><path d="M288.84,305.93h-.08l-.07.05-5.07,3.57-15.95,1.66-4.57.52-1.1.15a1.53,1.53,0,0,0-.46-.91,1.43,1.43,0,0,0-1-.42c-.25,0-.38.07-.37.11s.57,0,1,.6a1.18,1.18,0,0,1,.26.71h0a1.39,1.39,0,0,1,0,.4,1.22,1.22,0,0,1-1,.84,1.18,1.18,0,0,1-1.15-.63,1.23,1.23,0,0,1,0-1.14c.34-.64.93-.7.9-.79s-.14-.08-.39,0a1.45,1.45,0,0,0-.88.59,1.66,1.66,0,0,0-.14,1.61,1.7,1.7,0,0,0,3.2-.32,1.41,1.41,0,0,0,0-.54l1.1-.06,4.58-.37,16-1.45h.08l.06,0,5.08-3.54,8.48-.66,26.22-2.16,7.94-.73,2.06-.21a.85.85,0,1,0,0-.13l-2.06.11-8,.53-26.22,2Z" style="fill: rgb(255, 255, 255); transform-origin: 296.946px 307.868px;" id="elalfynggg4tc" class="animable"></path><path d="M245.51,393.1c-.23-2.42-.47-4.76-.69-7V386l-.12-.08-5.43-3.38-.08-.06h-.09l-12.47,1.33-3.53.42-.41.05a.86.86,0,0,0-.93-.71.87.87,0,0,0,.17,1.73.86.86,0,0,0,.77-.88l.41,0,3.55-.27,12.4-1.1,5.2,3.3c.22,2.2.44,4.5.66,6.86L246.82,412l.46.07C246.79,406.82,246.18,400.25,245.51,393.1Z" style="fill: rgb(255, 255, 255); transform-origin: 234.147px 397.275px;" id="elxb9q2788jtr" class="animable"></path><path d="M253.91,407.66l.08-.1,0-.12c-.91-9.31-1.78-18.07-2.53-25.74v-.11l-.09-.07-7.63-6.23c-.68-6.57-1.24-11.94-1.63-15.73-.2-1.83-.37-3.28-.48-4.32-.06-.45-.1-.81-.14-1.1l.18,0a.87.87,0,1,0-.95-.78.85.85,0,0,0,.7.75c0,.29,0,.66.07,1.12.09,1,.21,2.5.36,4.34.35,3.81.84,9.22,1.44,15.84v.09l.07.07,7.58,6.27c.73,7.62,1.56,16.29,2.44,25.51l-.84,1-3.27,4,.71.08c1-1.18,2-2.42,3-3.68Z" style="fill: rgb(255, 255, 255); transform-origin: 247.353px 382.417px;" id="eljxrdejencn" class="animable"></path><path d="M333.71,369.2l-43.46,4.14-9.53.93-.21,0-.05.2-3,11.26v.1c1,9.71,1.85,18.26,2.53,25l.37-.09c-.63-6.71-1.42-15.23-2.33-24.9,1-3.5,2-7.19,3-11l9.32-.9,43.45-4.31,2.07-.22.24-.42Z" style="fill: rgb(255, 255, 255); transform-origin: 306.785px 389.91px;" id="elue1py1a89g" class="animable"></path><path d="M279,334.26v.14l.12.08,3.08,2.19,8.63,6.11.09.06H291l22.17-2.26,6.45-.71,1.47-.19a.86.86,0,0,0,1.71-.22.86.86,0,0,0-.94-.78.87.87,0,0,0-.78.89l-1.48.1-6.47.54-22.08,2-8.53-6.07-3-2.1c-.67-6.7-1.29-12.92-1.83-18.28l0-.25-.25,0-14,1.47-3.91.45-.53.07a1.48,1.48,0,0,0-.25-.3,1.41,1.41,0,0,0-1-.41c-.25,0-.38.07-.37.1s.57,0,1,.6a.35.35,0,0,1,.05.08l-.34.07s.12,0,.36,0h0a1.25,1.25,0,0,1,.13,1,1.17,1.17,0,0,1-2.17.21,1.23,1.23,0,0,1,0-1.14c.35-.64.93-.69.9-.79s-.14-.08-.39,0a1.5,1.5,0,0,0-.88.59,1.66,1.66,0,0,0-.14,1.61,1.7,1.7,0,0,0,3.2-.31,1.58,1.58,0,0,0-.15-1.13l.49,0,3.92-.31,13.79-1.24C277.77,321.44,278.35,327.62,279,334.26Z" style="fill: rgb(255, 255, 255); transform-origin: 289.281px 329.175px;" id="el6teseiqwp3l" class="animable"></path><path d="M345.62,322.26l-8.24-6.79-.1-.08h-.12l-.73.08L300.82,319l-5.68-3.21-.07,0H295l-7.35.74h-.09l-.05.07-7.38,9.08,0,0v.05c.26,2.39.47,4.24.61,5.54.07.59.13,1.06.17,1.42a2.58,2.58,0,0,0,.08.47,2.47,2.47,0,0,0,0-.48c0-.36-.06-.83-.1-1.43-.11-1.28-.27-3.12-.47-5.49l7.39-8.87,7.2-.67,5.66,3.25.07,0h.09l35.7-3.42.6-.06,8.25,6.78.09.07h.13l1.77-.18c0-.19,0-.39,0-.58Z" style="fill: rgb(255, 255, 255); transform-origin: 313.75px 324.275px;" id="el7i9ff73whqb" class="animable"></path><path d="M232.26,249.05l.1.07,0,0,8.71,7.16c.85,8.49,1.62,16.1,2.23,22.2v.12l.11.06,8.09,4h.08l5-.55,1.28-.17a2.28,2.28,0,0,0,.44-.08,1.63,1.63,0,0,0-.44,0l-1.3.09-4.94.41-7.88-4c-.58-6.11-1.29-13.73-2.09-22.22V256l-.1-.08-8.72-7.19c-.18-1.74-.35-3.46-.52-5.16l-.56.2c.16,1.69.32,3.4.49,5.14Z" style="fill: rgb(255, 255, 255); transform-origin: 245.025px 263.115px;" id="elgmx6r1kr3jh" class="animable"></path><path d="M246.67,255.51l-.07.09v.11c.63,6,1.16,11.12,1.55,14.84.2,1.76.37,3.18.49,4.24a10.16,10.16,0,0,0,.24,1.51,9.65,9.65,0,0,0-.06-1.52c-.08-1.07-.19-2.5-.33-4.26-.33-3.7-.79-8.79-1.33-14.75l8.11-9.81,4.34-5.3.08-.09v-.12l-.15-1.48H259l.13,1.41-4.28,5.2Z" style="fill: rgb(255, 255, 255); transform-origin: 253.145px 257.635px;" id="elv6m4ojue6r" class="animable"></path><path d="M256.64,255.15a.9.9,0,0,0,.14-.53.87.87,0,0,0-.95-.78.86.86,0,0,0-.78.94.84.84,0,0,0,1.44.55l.89.8c.95.85,2.31,2,3.9,3.35.12,1.27.25,2.63.38,4,.3,3.15.61,6,.87,8.07a18.08,18.08,0,0,0,.54,3.32,19,19,0,0,0-.12-3.36c-.14-2.08-.39-4.94-.69-8.09-.15-1.46-.3-2.86-.43-4.15v-.12l-.09-.07c-1.67-1.35-3.1-2.48-4.13-3.26Z" style="fill: rgb(255, 255, 255); transform-origin: 259.071px 264.353px;" id="ely0ptvhy7kbr" class="animable"></path><path d="M266.89,277.62v.1l.06.07,4.53,4.71.09.1.14,0L298.18,280l13.65-1.33.13,0,.08-.1L322.39,265l-.39-.41-10.36,13.57-13.52,1.31L271.81,282l-4.38-4.53c-1.56-15.58-2.89-28.86-3.83-38.28l0-.17h-.34l0,.21C264.16,248.67,265.41,262,266.89,277.62Z" style="fill: rgb(255, 255, 255); transform-origin: 292.825px 260.81px;" id="el2sp0u6yo7ag" class="animable"></path><path d="M278,287l-6.28.52L251,289.48c-.08-.9-.17-1.84-.27-2.79l0-.22v-.16l-.14-.07-8.09-4.58-.08-.05h-.09l-16.62,1.73-4.81.55-1.28.17a1.8,1.8,0,0,0-.44.09,1.4,1.4,0,0,0,.45,0l1.29-.08,4.82-.38,16.56-1.51,7.86,4.48v.07c.11,1.05.21,2.1.31,3.09l0,.3.29,0,21-2.14,6.26-.7,1.69-.22a2.23,2.23,0,0,0,.58-.12,2.2,2.2,0,0,0-.59,0Z" style="fill: rgb(255, 255, 255); transform-origin: 249.735px 285.865px;" id="elupoa1fjrcjc" class="animable"></path><path d="M202,261.39l5.53,5.52.1.09h.13l15-1.53c.35,3.22.64,5.87.85,7.79.09.72.17,1.33.23,1.83,0,0-.07,0-.07.06s0,0,.09.05l0,.24a3.39,3.39,0,0,0,.13.76,3.48,3.48,0,0,0,0-.77v-.19a1.51,1.51,0,0,1,.8.51,1.25,1.25,0,0,1,.23,1.12,1.17,1.17,0,0,1-2.17.21,1.23,1.23,0,0,1,0-1.14c.35-.64.93-.7.9-.79s-.14-.08-.39,0a1.37,1.37,0,0,0-.87.59,1.63,1.63,0,0,0-.15,1.61,1.7,1.7,0,0,0,3.2-.32,1.61,1.61,0,0,0-.45-1.54,1.43,1.43,0,0,0-1-.42.49.49,0,0,0-.15,0c0-.51-.08-1.11-.13-1.83-.17-2-.4-4.7-.69-8V265l-.23,0-15,1.4-5.4-5.41Z" style="fill: rgb(255, 255, 255); transform-origin: 213.793px 269.665px;" id="elui5tmlo7pkd" class="animable"></path></g></g><path d="M51,205.9S64.53,195,109.46,218.7c0,0,45.2,19.68,30.09,38.48-12.85,16-39.15,6.9-53.65.1a119.32,119.32,0,0,1-23.37-15C51,232.65,41.36,218.12,51,205.9Z" style="fill: #E6C0E9; transform-origin: 94.847px 234.744px;" id="elnd764stqr18" class="animable"></path><g id="elij3niofrrht"><path d="M51,205.9S64.53,195,109.46,218.7c0,0,45.2,19.68,30.09,38.48-12.85,16-39.15,6.9-53.65.1a119.32,119.32,0,0,1-23.37-15C51,232.65,41.36,218.12,51,205.9Z" style="opacity: 0.4; transform-origin: 94.847px 234.744px;" class="animable" id="elziy2sc0g7ho"></path></g><path d="M52,205.1s15.9-16.53,60.82,7.19c0,0,44.11,25.13,27.33,42.45-11.51,11.87-36.39,2.93-50.89-3.87-7.61-3.57-18.23-9.55-24.68-15C53,226.25,44.49,214,52,205.1Z" style="fill: #E6C0E9; transform-origin: 96.5607px 230.018px;" id="elrblwy6z9mza" class="animable"></path><g id="el78lzmr549ah"><ellipse cx="96.62" cy="229.8" rx="15.68" ry="40.18" style="fill: rgb(255, 255, 255); opacity: 0.2; transform-origin: 96.62px 229.8px; transform: rotate(-62.16deg);" class="animable" id="ela123sii2mot"></ellipse></g><path d="M121.16,239.25l-6.07-3.49a15.16,15.16,0,0,0-7.2-6.92c-5-2.16-7.75-1.07-7.75-1.07s-.1-4.94-7-8.21c-9-4.29-10.56-1.5-10.56-1.5l-7.42-4.26-2,3.46,6.32,3.63-.58,1-6.5-3.73-2.1,3.64,6.56,3.49-1,1.66,32.68,18.78,1.41-2.45,6.43,3.7,1.8-3.13-6-3.45.92-1.6,6,3.45Zm-28.84-7.91-8.12-4.67s2.2-5.6,7.3-3.17S92.32,231.34,92.32,231.34Zm13.32,7.31-7-4s1-5.28,5.87-3.06C110.12,234.11,105.64,238.65,105.64,238.65Z" style="fill: #E6C0E9; transform-origin: 95.73px 230.39px;" id="ell6l9s519tnj" class="animable"></path><g id="elzc28a6r17j"><path d="M121.16,239.25l-6.07-3.49a15.16,15.16,0,0,0-7.2-6.92c-5-2.16-7.75-1.07-7.75-1.07s-.1-4.94-7-8.21c-9-4.29-10.56-1.5-10.56-1.5l-7.42-4.26-2,3.46,6.32,3.63-.58,1-6.5-3.73-2.1,3.64,6.56,3.49-1,1.66,32.68,18.78,1.41-2.45,6.43,3.7,1.8-3.13-6-3.45.92-1.6,6,3.45Zm-28.84-7.91-8.12-4.67s2.2-5.6,7.3-3.17S92.32,231.34,92.32,231.34Zm13.32,7.31-7-4s1-5.28,5.87-3.06C110.12,234.11,105.64,238.65,105.64,238.65Z" style="opacity: 0.4; transform-origin: 95.73px 230.39px;" class="animable" id="elh0a3qnj84xs"></path></g><path d="M122.65,236.6l-6.07-3.49a15.12,15.12,0,0,0-7.2-6.91c-5-2.16-7.74-1.07-7.74-1.07s-.1-4.94-7-8.21c-9-4.3-10.55-1.5-10.55-1.5l-7.42-4.27-2,3.47L81,218.25l-.58,1-6.5-3.74-2.09,3.65,6.56,3.49-1,1.65,32.67,18.79,1.41-2.46,6.44,3.7,1.8-3.12-6-3.46.91-1.59,6.2,3.56Zm-28.83-7.91L85.7,224s2.19-5.6,7.3-3.18S93.82,228.69,93.82,228.69ZM107.14,236l-7-4s1-5.28,5.86-3.07C111.62,231.47,107.14,236,107.14,236Z" style="fill: #E6C0E9; transform-origin: 97.24px 227.74px;" id="el9rpn50wm7jl" class="animable"></path><path d="M54,203.62s.3-.27,1-.65c.33-.19.73-.42,1.23-.65s1.07-.52,1.74-.78a37.72,37.72,0,0,1,11.8-2.69,50.68,50.68,0,0,1,8.4.11,61.6,61.6,0,0,1,9.47,1.74A115.17,115.17,0,0,1,108,208.64c14.14,6.67,25.22,16.08,31.2,24.44,3,4.2,4.47,8.27,4.7,11.16,0,.36.07.69.1,1v.89a6.9,6.9,0,0,1-.11,1.4,3.14,3.14,0,0,1-.25,1.12c-.16,0,.13-1.59-.33-4.35a25,25,0,0,0-5-10.59c-6.06-8-17-17.12-31-23.68a120.61,120.61,0,0,0-20.16-8A63.64,63.64,0,0,0,78,200.25a52.76,52.76,0,0,0-8.19-.3,42.12,42.12,0,0,0-11.66,2.15C55.45,203,54.05,203.75,54,203.62Z" style="fill: rgb(250, 250, 250); transform-origin: 99.001px 223.688px;" id="eltiap2s6zfr" class="animable"></path><g id="elivb7dsdalf"><path d="M132.63,247.37S139,231.8,105.3,213.5,61.08,211,61.08,211s8.74-13.07,43.82,5.33C135.45,232.39,132.63,247.37,132.63,247.37Z" style="opacity: 0.4; transform-origin: 97.0947px 226.017px;" class="animable" id="elocag7o2q5rl"></path></g><path d="M124,265.7c-.2,0,.11-1.27.63-2.7a7.38,7.38,0,0,1,1.21-2.51,8.1,8.1,0,0,1-.72,2.69A11.08,11.08,0,0,1,124,265.7Z" style="fill: rgb(38, 50, 56); transform-origin: 124.889px 263.095px;" id="el9esv1w5q0gq" class="animable"></path><path d="M132.33,263.14c-.2,0,0-1.05.45-2.19s.89-2.05,1-2a5.15,5.15,0,0,1-.54,2.18A7.17,7.17,0,0,1,132.33,263.14Z" style="fill: rgb(38, 50, 56); transform-origin: 133.016px 261.044px;" id="el8pa0isu20p" class="animable"></path><path d="M116.66,266a9.27,9.27,0,0,1,.77-3,9.13,9.13,0,0,1,1.26-2.79,9.35,9.35,0,0,1-.77,3A9,9,0,0,1,116.66,266Z" style="fill: rgb(38, 50, 56); transform-origin: 117.675px 263.105px;" id="el7b22ku5rd0r" class="animable"></path><path d="M109.51,265.21a10.26,10.26,0,0,1,.84-3.16,10.15,10.15,0,0,1,1.33-3,20.44,20.44,0,0,1-2.17,6.14Z" style="fill: rgb(38, 50, 56); transform-origin: 110.595px 262.13px;" id="el9ftplc1c7bf" class="animable"></path><path d="M101.73,263.1a10.26,10.26,0,0,1,.84-3.16,10.45,10.45,0,0,1,1.33-3,10.54,10.54,0,0,1-.84,3.16A10.29,10.29,0,0,1,101.73,263.1Z" style="fill: rgb(38, 50, 56); transform-origin: 102.815px 260.02px;" id="elbt01nwf0r8f" class="animable"></path><path d="M94.54,260.54a10.26,10.26,0,0,1,.84-3.16,10.45,10.45,0,0,1,1.33-3,10.54,10.54,0,0,1-.84,3.16A10.29,10.29,0,0,1,94.54,260.54Z" style="fill: rgb(38, 50, 56); transform-origin: 95.625px 257.46px;" id="els9zas4fkqx" class="animable"></path><path d="M87.35,258a10.26,10.26,0,0,1,.84-3.16,10.45,10.45,0,0,1,1.33-3A20.63,20.63,0,0,1,87.35,258Z" style="fill: rgb(38, 50, 56); transform-origin: 88.435px 254.92px;" id="elzo5zzepme4" class="animable"></path><path d="M80.6,254.18a10.4,10.4,0,0,1,.83-3.16,10.61,10.61,0,0,1,1.33-3,10.4,10.4,0,0,1-.83,3.16A10.61,10.61,0,0,1,80.6,254.18Z" style="fill: rgb(38, 50, 56); transform-origin: 81.68px 251.1px;" id="ela15j76515xu" class="animable"></path><path d="M73.9,250.21a20.63,20.63,0,0,1,2.17-6.15,10.26,10.26,0,0,1-.84,3.16A10.45,10.45,0,0,1,73.9,250.21Z" style="fill: rgb(38, 50, 56); transform-origin: 74.985px 247.135px;" id="elpefegff1zr" class="animable"></path><path d="M67.26,246.06a10.61,10.61,0,0,1,.84-3.16,10.45,10.45,0,0,1,1.33-3,10.54,10.54,0,0,1-.84,3.16A10.29,10.29,0,0,1,67.26,246.06Z" style="fill: rgb(38, 50, 56); transform-origin: 68.345px 242.98px;" id="elqkk73e0tb3q" class="animable"></path><path d="M61.18,241.35a20.63,20.63,0,0,1,2.17-6.15,10.61,10.61,0,0,1-.84,3.16A10.29,10.29,0,0,1,61.18,241.35Z" style="fill: rgb(38, 50, 56); transform-origin: 62.265px 238.275px;" id="el81iz1qu3u9l" class="animable"></path><path d="M55.32,235.54a20.63,20.63,0,0,1,2.17-6.15,10.61,10.61,0,0,1-.84,3.16A10.29,10.29,0,0,1,55.32,235.54Z" style="fill: rgb(38, 50, 56); transform-origin: 56.405px 232.465px;" id="el696uarv5t1p" class="animable"></path><path d="M50.88,228.69a8.6,8.6,0,0,1,.72-2.82,8.39,8.39,0,0,1,1.22-2.66A8.57,8.57,0,0,1,52.1,226,8.26,8.26,0,0,1,50.88,228.69Z" style="fill: rgb(38, 50, 56); transform-origin: 51.85px 225.95px;" id="eltpx0a6c30ei" class="animable"></path><path d="M47.64,221.55a8.6,8.6,0,0,1,.72-2.82,8.26,8.26,0,0,1,1.22-2.65,8.54,8.54,0,0,1-.72,2.82A8.13,8.13,0,0,1,47.64,221.55Z" style="fill: rgb(38, 50, 56); transform-origin: 48.61px 218.815px;" id="eleb5hj80ashf" class="animable"></path><path d="M91.55,220.77c-.19.4-.94.45-1.74.53s-1.56.13-1.81-.23c-.11-.18,0-.47.27-.75a2.51,2.51,0,0,1,2.89-.24C91.5,220.3,91.63,220.58,91.55,220.77Z" style="fill: rgb(250, 250, 250); transform-origin: 89.7653px 220.545px;" id="elzyhtggi366r" class="animable"></path><path d="M105.84,229c-.26.35-1.08.21-2,.15s-1.72-.07-1.91-.47c-.09-.19,0-.48.42-.72a2.8,2.8,0,0,1,3.16.26C105.86,228.54,106,228.84,105.84,229Z" style="fill: rgb(250, 250, 250); transform-origin: 103.902px 228.409px;" id="el1t7bmkzykjt" class="animable"></path><path d="M95.5,217.35c0,.09-.36,0-.86-.13l-2-.76a21.18,21.18,0,0,0-3-.9,8.73,8.73,0,0,0-3.64-.1,3.89,3.89,0,0,0-.73.22,3.06,3.06,0,0,0-.54.29l-.48.37-.44-.25c-4.18-2.49-7.22-4.6-7-4.94s3.55,1.23,7.8,3.6l-.91.11a3.41,3.41,0,0,1,1-.6,4.51,4.51,0,0,1,1-.33,9.09,9.09,0,0,1,4.33.23A15.09,15.09,0,0,1,93,215.45a11.8,11.8,0,0,1,1.9,1.24C95.35,217,95.56,217.26,95.5,217.35Z" style="fill: rgb(250, 250, 250); transform-origin: 86.1544px 214.245px;" id="el2h6t5b6956d" class="animable"></path></g><g id="freepik--Plant--inject-36" class="animable" style="transform-origin: 400.267px 435.845px;"><path d="M398.69,430.38c-1.62,2.32-4.78,1.55-6.24.14s-2.09-3.47-2.65-5.43c-1.29-4.48-2.59-9.17-1.63-13.73a7.72,7.72,0,0,1,1.75-3.73,4,4,0,0,1,3.78-1.25c1.59.42,2.58,2,3.3,3.46a32.81,32.81,0,0,1,3.23,14,11.31,11.31,0,0,1-1.54,6.5" style="fill: #E6C0E9; transform-origin: 394.047px 419.079px;" id="elt6xqy72kvj7" class="animable"></path><g id="elph9shi7bb1s"><path d="M398.69,430.38c-1.62,2.32-4.78,1.55-6.24.14s-2.09-3.47-2.65-5.43c-1.29-4.48-2.59-9.17-1.63-13.73a7.72,7.72,0,0,1,1.75-3.73,4,4,0,0,1,3.78-1.25c1.59.42,2.58,2,3.3,3.46a32.81,32.81,0,0,1,3.23,14,11.31,11.31,0,0,1-1.54,6.5" style="opacity: 0.2; transform-origin: 394.047px 419.079px;" class="animable" id="ely8l6jf9t859"></path></g><path d="M392.6,442.14a14,14,0,0,0-8.73-1.07,7.32,7.32,0,0,0-4.32,1.93c-1.08,1.19-1.28,3.29,0,4.31a4.11,4.11,0,0,0,2.72.69c2.31,0,4.87-.43,6.72,1,1.05.79,1.75,2.11,3,2.5a3,3,0,0,0,3.27-1.46,5,5,0,0,0,.37-3.75A5.72,5.72,0,0,0,392.6,442.14Z" style="fill: #E6C0E9; transform-origin: 387.25px 446.185px;" id="elnm9uubkqay7" class="animable"></path><path d="M403.16,433.71a8.44,8.44,0,0,1-1.32-7.77,15,15,0,0,1,4.61-6.68,24.54,24.54,0,0,1,8.24-4.86,8.78,8.78,0,0,1,3.71-.63,3.9,3.9,0,0,1,3.11,1.88c.87,1.65,0,3.66-.87,5.3a62.21,62.21,0,0,1-5.41,8.24c-1.62,2.1-3.48,4.16-6,5.1s-5,.84-6.35-.88" style="fill: #E6C0E9; transform-origin: 411.644px 424.321px;" id="el0nuagthon3" class="animable"></path><path d="M398.8,465.39a4.66,4.66,0,0,1-.14-1.05c-.08-.77-.17-1.73-.28-2.88a42.37,42.37,0,0,0-.65-4.22,32.3,32.3,0,0,0-1.54-5,17.9,17.9,0,0,0-2.54-4.51,9.53,9.53,0,0,0-3.22-2.68,9.07,9.07,0,0,0-2.71-.84,5.29,5.29,0,0,1-1.05-.15,4.67,4.67,0,0,1,1.07,0,8.26,8.26,0,0,1,2.83.74,9.46,9.46,0,0,1,3.39,2.69,17.81,17.81,0,0,1,2.64,4.6,31,31,0,0,1,1.52,5.07,34.47,34.47,0,0,1,.56,4.27c.1,1.23.13,2.22.15,2.9A4.89,4.89,0,0,1,398.8,465.39Z" style="fill: rgb(38, 50, 56); transform-origin: 392.758px 454.71px;" id="eld4qrtkjt3xc" class="animable"></path><path d="M398.61,463.18a1.56,1.56,0,0,1,0-.49v-1.4c0-1.21,0-3-.06-5.14-.11-4.34-.48-10.33-1.2-16.92s-1.7-12.52-2.57-16.77c-.21-1.06-.42-2-.62-2.86s-.35-1.57-.5-2.16-.24-1-.33-1.36a1.59,1.59,0,0,1-.08-.48,2.64,2.64,0,0,1,.17.46c.1.35.24.8.4,1.34s.37,1.3.58,2.14.45,1.79.68,2.86a158.42,158.42,0,0,1,2.7,16.78c.72,6.6,1.05,12.61,1.08,17,0,2.18,0,3.94-.08,5.16,0,.56-.06,1-.08,1.39A3.26,3.26,0,0,1,398.61,463.18Z" style="fill: rgb(38, 50, 56); transform-origin: 396.055px 439.39px;" id="elxlgpuno2an" class="animable"></path><path d="M398.58,451.59a8.59,8.59,0,0,1,0-1.46c.05-.94.18-2.3.44-4a55.92,55.92,0,0,1,1.29-5.77,50.79,50.79,0,0,1,2.42-6.83,36.53,36.53,0,0,1,7.08-11,18.83,18.83,0,0,1,1.67-1.55c.26-.21.48-.43.71-.6l.65-.45a8.22,8.22,0,0,1,1.23-.78,43.13,43.13,0,0,0-4,3.59,38.15,38.15,0,0,0-6.91,11,53.16,53.16,0,0,0-2.43,6.77c-.63,2.12-1,4.07-1.37,5.71s-.48,3-.58,3.92A10,10,0,0,1,398.58,451.59Z" style="fill: rgb(38, 50, 56); transform-origin: 406.309px 435.37px;" id="elckziq68mhaj" class="animable"></path></g><defs>     <filter id="active" height="200%">         <feMorphology in="SourceAlpha" result="DILATED" operator="dilate" radius="2"></feMorphology>                <feFlood flood-color="#32DFEC" flood-opacity="1" result="PINK"></feFlood>        <feComposite in="PINK" in2="DILATED" operator="in" result="OUTLINE"></feComposite>        <feMerge>            <feMergeNode in="OUTLINE"></feMergeNode>            <feMergeNode in="SourceGraphic"></feMergeNode>        </feMerge>    </filter>    <filter id="hover" height="200%">        <feMorphology in="SourceAlpha" result="DILATED" operator="dilate" radius="2"></feMorphology>                <feFlood flood-color="#ff0000" flood-opacity="0.5" result="PINK"></feFlood>        <feComposite in="PINK" in2="DILATED" operator="in" result="OUTLINE"></feComposite>        <feMerge>            <feMergeNode in="OUTLINE"></feMergeNode>            <feMergeNode in="SourceGraphic"></feMergeNode>        </feMerge>            <feColorMatrix type="matrix" values="0   0   0   0   0                0   1   0   0   0                0   0   0   0   0                0   0   0   1   0 "></feColorMatrix>    </filter></defs></svg>